<svg xmlns="http://www.w3.org/2000/svg" xmlns:xlink="http://www.w3.org/1999/xlink" width="435.646" height="417.542" viewBox="0 0 435.646 417.542"><defs><style>.a,.g{fill:#b21e60;}.a,.f,.n{opacity:0.1;}.b{fill:url(#a);}.c{fill:#d38884;}.d{fill:#444053;}.e{fill:#b07473;}.h{fill:#67647e;}.i{fill:#585268;}.j{fill:#e1e7ef;}.k{fill:url(#b);}.l{fill:#a27772;}.m{fill:#cc818c;}.o{fill:#f6f8fb;}.p{fill:url(#c);}.q{fill:#65617d;}.r{fill:#fbbebe;}.s,.z{opacity:0.05;}.t{fill:#7c5c5c;}.u{fill:url(#d);}.v{fill:#fdc2cc;}.w{fill:#d39999;}.x{fill:#7e5659;}.y{fill:#865a61;}.aa{fill:url(#e);}.ab{fill:#fff;opacity:0.5;}.ac{fill:#3f2b3b;}.ad{fill:none;stroke:#3f2b3b;stroke-miterlimit:10;}.ae{fill:#a8a8a8;}.af{opacity:0.2;}</style><linearGradient id="a" x1="0.5" y1="1" x2="0.5" gradientUnits="objectBoundingBox"><stop offset="0" stop-color="gray" stop-opacity="0.251"/><stop offset="0.54" stop-color="gray" stop-opacity="0.122"/><stop offset="1" stop-color="gray" stop-opacity="0.102"/></linearGradient><linearGradient id="b" x1="0.5" x2="0.5" y2="0" xlink:href="#a"/><linearGradient id="c" x1="0.5" x2="0.5" y2="0" xlink:href="#a"/><linearGradient id="d" x1="1.096" x2="1.096" y2="0" xlink:href="#a"/><linearGradient id="e" x1="0.5" x2="0.5" y2="0" xlink:href="#a"/></defs><g transform="translate(0.013 -0.004)"><path class="a" d="M43.44,426.65c6.97,34.07,21.728,63.522,45.051,77.8,48.49,29.67,157.779,14.366,239.358-3.2,42.209-9.087,79.283-34.143,106.23-69.452Z" transform="translate(-39.161 -229.214)"/><path class="a" d="M485.827,57.209H441.416c-2.113,0-3.842-1.991-3.842-4.425s1.725-4.425,3.842-4.425H449.1c-2.113,0-3.842-1.991-3.842-4.425a4.17,4.17,0,0,1,3.842-4.42h-5.483c-2.113,0-3.842-1.991-3.842-4.425s1.725-4.425,3.842-4.425H466.8a54.932,54.932,0,0,0-18.081-5.741c-63.207-9.359-85.776-3.171-93.748,3.2a83.105,83.105,0,0,1-32.485,16.411c-39,9.272-111.929,20.428-178.033-3.575C111.6,29.035,87.179,49.215,72.54,82.877h421a89.292,89.292,0,0,0-5.214-26.746A3.526,3.526,0,0,1,485.827,57.209Z" transform="translate(-58.1 -20.14)"/><path class="a" d="M32.1,280.23a259.5,259.5,0,0,0,1.726,59.442l390.041,16.435a216.434,216.434,0,0,0,27.1-47.6Zm154.255,42.4H178.67c2.11,0,3.843,1.991,3.843,4.425a4.173,4.173,0,0,1-3.843,4.42h-44.4a4.175,4.175,0,0,1-3.843-4.42c0-2.433,1.729-4.425,3.843-4.425h7.686c-2.11,0-3.843-1.991-3.843-4.425s1.729-4.425,3.843-4.425H136.46a4.175,4.175,0,0,1-3.843-4.42c0-2.433,1.729-4.425,3.843-4.425h44.424c2.114,0,3.843,1.991,3.843,4.425a4.17,4.17,0,0,1-3.843,4.42h5.473c2.114,0,3.843,1.991,3.843,4.425A4.169,4.169,0,0,1,186.357,322.635Z" transform="translate(-31.16 -153.908)"/><path class="a" d="M468.311,149.94,43.949,161.873A220.863,220.863,0,0,0,33.78,212.539H460.874a237.9,237.9,0,0,0,6.166-32.293A176.926,176.926,0,0,0,468.311,149.94Zm-348.368,39.1h-7.66c2.1,0,3.83,1.991,3.83,4.425s-1.724,4.425-3.83,4.425H68.016c-2.1,0-3.83-1.991-3.83-4.425s1.723-4.425,3.83-4.425h7.66c-2.1,0-3.83-1.986-3.83-4.42s1.723-4.425,3.83-4.425H70.2c-2.1,0-3.83-1.991-3.83-4.425s1.723-4.425,3.83-4.425h44.271c2.107,0,3.83,1.991,3.83,4.425s-1.72,4.425-3.83,4.425h5.469c2.1,0,3.83,1.991,3.83,4.425S122.046,189.042,119.943,189.042Z" transform="translate(-32.874 -86.897)"/><ellipse class="a" cx="26.267" cy="8.203" rx="26.267" ry="8.203" transform="translate(228.606 356.03)"/><ellipse class="a" cx="47.388" cy="5.41" rx="47.388" ry="5.41" transform="translate(284.012 384.874)"/><ellipse class="a" cx="47.388" cy="8.203" rx="47.388" ry="8.203" transform="translate(55.333 373.878)"/><ellipse class="a" cx="35.656" cy="8.203" rx="35.656" ry="8.203" transform="translate(155.737 332.814)"/><ellipse class="a" cx="28.544" cy="8.203" rx="28.544" ry="8.203" transform="translate(174.044 401.14)"/><path class="b" d="M480.361,227.3c-.754-7.062-5.367-23.541-5.367-23.541h0q-.12-.729-.272-1.457c-3.272-15.639-7.8-17-7.8-17L450.7,180.445a1.547,1.547,0,0,1,.349.452,1.671,1.671,0,0,0-.255.053,10.677,10.677,0,0,1-1.421-4.274c-.031-.233-.059-.486-.08-.724a19.605,19.605,0,0,0,3.429-12.224,18.415,18.415,0,0,0-4.358-11.637c-.171-.185-.349-.364-.52-.534a4.744,4.744,0,0,0,.216-4.279,11.89,11.89,0,0,0-6.913-7.169,8.6,8.6,0,0,0-6.711-.2,21.947,21.947,0,0,0-3.513,2.268c-2.154,1.5-4.539,2.681-6.149,5.143a3.064,3.064,0,0,0-.615,2.064,6.415,6.415,0,0,0,.611,1.5,6.162,6.162,0,0,1,.031,3.759c-.318,1.224-.782,2.36-1,3.613a4.94,4.94,0,0,0,.541,3.628,12.259,12.259,0,0,0,1.013.971,7.16,7.16,0,0,1,.967,1.51q.964,1.8,1.92,3.609a40.774,40.774,0,0,1,2.406,5.085,29.07,29.07,0,0,0,1.487,3.885,5.41,5.41,0,0,0,.639.933l-.189-.1a2.567,2.567,0,0,0,2.133,1.209h.1a.517.517,0,0,0,.391-.223v.486c.038,1.734.031,3.579-.056,5.313l-.15-.107a1.022,1.022,0,0,0-1.4.2l-14.933,16.669s-3.247,6.178-2.793,16.843l-2.619,15.993s-3.272,13.57-.754,23.259,3.977,15.231,3.977,15.231,1.006,11.01,2.517,11.909,2.165,1.384,2.165,1.384l.3,2.632h0s.1.257.279.69c1.1,2.661,5.174,12.055,7.542,11.049a58.315,58.315,0,0,1,.384,7.717l2.343,21.88s1.634,5.95,1.533,9.068,1.906,7.562,1.906,7.562a19.519,19.519,0,0,0-1.005,10.175c.957,5.828,2.165,32.677,2.165,32.677l1.746,6.508-.049,7.63a8.889,8.889,0,0,1-1.082,3.4c-1.131,1.71-1.047,3.686-3.774,6.022S429,416.179,429,419.273a11.227,11.227,0,0,1-.084,1.287c-.251,2.273-.74,3.507,4.274,4.167,5.89.777,9.818-4.565,9.818-4.565s.866-2.186,4.944-3.069a1.7,1.7,0,0,0,1.47-1.816c.028-.593.021-1.724,0-2.972-.066-2.375-.23-5.148-.447-5.284a14.554,14.554,0,0,1-.911-3.424h1.135s1.047-11.01,0-18.14a40.7,40.7,0,0,1-.1-12.186l-.2-18.83s-1.4-2.079-.3-5.75,0-21.807,0-21.807.4-6.508,1.561-8.033.056-9.534,0-9.952l2.06,9.612s.9,19.107,2.821,22.565l.552,8.655s3.924,7.965,3.17,12.254.807,19.8.807,19.8v15.857s-1.763,6.367.7,8.655l1.047-.058c-.349.452-.618,1.132-1.027,1.719-.471.675-.74,3.244-.89,5.454-.126,1.87-.168,3.477-.168,3.477s1.047,2.331,3.02,2.491,8.474,7.038,8.474,7.038,6.421,0,8.083-.486l.1-.034a2.519,2.519,0,0,0,1.253-1.423,4.894,4.894,0,0,0,.3-2.618,6.337,6.337,0,0,0-2.709-4.133c-4.291-3.147-4.93-6.1-4.93-6.1l-2.818-5.882h.4a33.152,33.152,0,0,1,2.818-13.225l-.2-30.807s1.257-10.593-.9-16.343c0,0-.178-6.09,1.267-7.96s-1.924-20.768-1.924-20.768-.7-10.146-1.519-19.4h0c3.4,4.483,6.92-11.656,7.514-14.527h.087l-.038-.209c.024-.136.038-.2.038-.2h0s-.754-3.73-.2-2.972,1.913-2.079,1.913-2.079-.2-15.44,2.165-23.22S480.361,227.3,480.361,227.3Zm-10.126,9.825.017-.044c.349,9.427-.066,29.544-.066,29.544s-.468,2.579-.967,5.614l-.349-19.112h0l-.349-18Zm-43.334-6.5s1.711,29.767,0,34.061a29.383,29.383,0,0,0-1.233,5.882c-.566-2.064-1.763-6.911-1.334-9.48.555-3.322-1.107-12.05-1.107-12.254a28.186,28.186,0,0,1,1.047-8.412c1.2-3.555.412-5.095.412-5.095S425.693,229.5,426.9,230.625Z" transform="translate(-263.12 -81.432)"/><path class="c" d="M450.593,449.694c-1.491,9.116-7.42-4.667-8.771-7.975-.175-.432-.272-.685-.272-.685l.642-4.191,3.4-1.943a9.867,9.867,0,0,1,1.522,1.379C448.973,438.314,451.742,442.632,450.593,449.694Z" transform="translate(-284.079 -233.457)"/><path class="c" d="M580.967,432.176a.851.851,0,0,1-.038.2,1.358,1.358,0,0,1-.045.219c-.583,2.846-4.04,18.869-7.378,14.42-3.652-4.857-1.878-16.086-1.878-16.086h.024l7.681-1.093,1.522,2.176h0Z" transform="translate(-363.954 -230.855)"/><path class="d" d="M498.866,512.333l.2,30.6a33.1,33.1,0,0,0-2.765,13.113l-9.93.544c-2.423-2.268-.7-8.587-.7-8.587V532.246s-1.533-15.391-.793-19.655-3.111-12.142-3.111-12.142l-.545-8.592c-1.878-3.434-2.769-22.4-2.769-22.4l-2.015-9.578c.056.413,1.1,8.407,0,9.879s-1.533,7.97-1.533,7.97,1.086,18.009,0,21.647.293,5.707.293,5.707l.2,18.694a40.426,40.426,0,0,0,.1,12.093c1.037,7.076,0,18.009,0,18.009H464.841l.049-7.63-1.725-6.46s-1.187-26.664-2.126-32.438a19.593,19.593,0,0,1,.985-10.1s-1.973-4.4-1.875-7.489-1.522-8.995-1.522-8.995l-2.3-21.715a57.841,57.841,0,0,0-1.138-12.37c-1.334-6.188-3.31-14.3-3.31-14.3l2.231.277,11.257,1.394s27.37-2.56,28.6-.432a9.232,9.232,0,0,1,.517,2.22c1.229,7.679,2.853,31.734,2.853,31.734s3.31,18.762,1.889,20.617-1.246,7.9-1.246,7.9C500.105,501.793,498.866,512.333,498.866,512.333Z" transform="translate(-288.847 -232.161)"/><path class="e" d="M482.408,691.016a1.689,1.689,0,0,1-1.442,1.807c-4,.874-4.853,3.04-4.853,3.04s-3.841,5.308-9.633,4.536c-4.923-.661-4.445-1.88-4.19-4.138a11.812,11.812,0,0,0,.08-1.272c0-3.094,1.7-3.973,4.371-6.314s2.594-4.279,3.7-5.979,1.225-5,1.225-5c1.257-3.045,4.445.486,4.445.486.15,1.078,4.888.928,4.888.928s.629,3.507.953,3.711c.213.136.374,2.885.436,5.245C482.429,689.307,482.435,690.429,482.408,691.016Z" transform="translate(-296.336 -357.697)"/><path class="f" d="M482.408,703.318a1.689,1.689,0,0,1-1.442,1.807c-4,.874-4.853,3.04-4.853,3.04s-3.841,5.308-9.633,4.536c-4.923-.661-4.445-1.88-4.19-4.138,2.2.758,6.4,1.817,8.858-.039,3.411-2.574,5.859-4.371,5.859-4.371l5.391-3.774C482.429,701.609,482.435,702.731,482.408,703.318Z" transform="translate(-296.336 -369.999)"/><path class="e" d="M568.3,702.273a2.473,2.473,0,0,1-1.229,1.413l-.094.034c-1.631.486-7.933.486-7.933.486s-6.372-6.853-8.3-7.008-2.964-2.477-2.964-2.477.038-1.593.161-3.448c.15-2.2.412-4.745.876-5.415.852-1.238,1.047-2.914,2.964-1.855,0,0,2.737-6.712,5.964-1.525l3.338,7.042s.628,2.914,4.857,6.076a6.348,6.348,0,0,1,2.657,4.1A4.864,4.864,0,0,1,568.3,702.273Z" transform="translate(-348.996 -359.78)"/><path class="f" d="M568.3,713.671c-.377.442-.793.918-1.229,1.413l-.094.034c-1.631.486-7.933.486-7.933.486s-6.372-6.853-8.3-7.008-2.964-2.477-2.964-2.477.038-1.593.161-3.448c1.962.816,4.934,2.258,5.73,3.813,1.222,2.365,4.934,5.668,4.934,5.668s6.92-.928,9.993-1.054A4.863,4.863,0,0,1,568.3,713.671Z" transform="translate(-348.996 -371.177)"/><path class="c" d="M495.019,214.46l-9.113,13.4s-11.044-1.132-9.117-5.668c.981-2.312,1.135-7.149,1.047-11.355-.08-4.055-.381-7.509-.381-7.509s15.489-10.724,14.315-.724a22.809,22.809,0,0,0-.042,5.707C492.389,213.362,495.019,214.46,495.019,214.46Z" transform="translate(-305.284 -111.79)"/><path class="f" d="M493.421,202.6a22.81,22.81,0,0,0-.042,5.707c-2.14,3.017-5.061,4.712-8.107,4.706-2.095,0-4.361-2.394-6.054-3.779-.08-4.06-.1-5.911-.1-5.911S494.609,192.6,493.421,202.6Z" transform="translate(-307.027 -111.79)"/><path class="c" d="M486.866,177.363c0,7.408-3.68,13.834-8.872,15.484s-10.515-1.914-12.825-8.589-1-14.685,3.168-19.3,10.071-4.616,14.234,0A18.748,18.748,0,0,1,486.866,177.363Z" transform="translate(-297.397 -92.838)"/><path class="f" d="M497.7,436.121c-2.842,9.408-21.124,9.6-21.124,9.6V435.465l-1.107-.1c.478,2.938-.67,10.1-.67,10.1-14.448,2.836-17.971-8.616-17.971-8.616l.5-3.919,11.257,1.394s27.37-2.56,28.6-.432A9.243,9.243,0,0,1,497.7,436.121Z" transform="translate(-292.192 -232.444)"/><path class="g" d="M476.578,338.869V328.611l-1.107-.1c.478,2.914-.67,10.1-.67,10.1-10.873,2.132-15.558-3.822-17.21-6.9a10.521,10.521,0,0,1-.761-1.71l4.413-34.532,1.047-50.822,1.582-8.917.367-4.279v-.049h.038l1.124.67,6.728,4.046,7.643-8.028.112-.112.381-.4.632.7,1.571,1.753,5.038,45.26s8.729,34.848,10.363,48.913c.066.563.119,1.088.161,1.578C499.109,338.631,476.578,338.869,476.578,338.869Z" transform="translate(-292.175 -126.829)"/><ellipse class="h" cx="0.649" cy="0.903" rx="0.649" ry="0.903" transform="translate(180.005 109.392)"/><ellipse class="h" cx="0.649" cy="0.903" rx="0.649" ry="0.903" transform="translate(180.335 117.639)"/><ellipse class="h" cx="0.649" cy="0.903" rx="0.649" ry="0.903" transform="translate(181.047 130.99)"/><ellipse class="h" cx="0.649" cy="0.903" rx="0.649" ry="0.903" transform="translate(182.223 145.371)"/><ellipse class="h" cx="0.649" cy="0.903" rx="0.649" ry="0.903" transform="translate(182.935 158.873)"/><ellipse class="h" cx="0.649" cy="0.903" rx="0.649" ry="0.903" transform="translate(183.648 173.254)"/><ellipse class="h" cx="0.649" cy="0.903" rx="0.649" ry="0.903" transform="translate(183.364 187.479)"/><path class="f" d="M464.666,304.4s-.726,13.225-2.06,17.072-1.927,14.638-1.927,14.638l-3.1-.486a10.515,10.515,0,0,1-.761-1.71l4.413-34.532,1.047-50.822,1.585-8.922.367-4.279.042-.024a.942.942,0,0,1,1.1.024l.147.107q-.066.262-.126.539c-1.208,5.26-1.658,14.954-1.658,14.954s1.746,17.732,1.927,25.979S464.666,304.4,464.666,304.4Z" transform="translate(-293.506 -130.731)"/><path class="f" d="M447.112,436.294a2.954,2.954,0,0,1-.119.321c-1.2,2.822-4.246,4.614-5.171,5.1-.175-.432-.272-.685-.272-.685l.642-4.191,3.4-1.943A9.915,9.915,0,0,1,447.112,436.294Z" transform="translate(-284.215 -233.457)"/><path class="h" d="M420.749,298.81l-2.818,2.336-2.566,15.877s-3.212,13.468-.744,23.089,3.9,15.129,3.9,15.129.988,10.928,2.472,11.821,2.123,1.375,2.123,1.375l.3,2.613s4.022-1.9,5.443-5.245-1.047-11.656-1.047-11.656-2.123-7.081-1.578-10.379-1.089-11.957-1.089-12.142a28.01,28.01,0,0,1,1.047-8.354c1.194-3.541.4-5.051.4-5.051l-.744-10.1Z" transform="translate(-266.69 -163.464)"/><path class="f" d="M540.365,327.9s-7.462,3.915-9.832.486-2.126-19.519-2.126-19.519-2.269-29.69-3.7-34.566-.7-40.069-.7-40.069-.964-4.551-1.805-5.741a1.051,1.051,0,0,0-.178-.2l.29.087,1.013.3,1.571,1.753,5.038,45.26s8.729,34.848,10.363,48.913Z" transform="translate(-333.265 -127.194)"/><path class="f" d="M581.757,432.579h-.084c-.939.17-9.228,1.564-9.263-.835q0-.416.031-.831l7.681-1.093L581.645,432h0c.028.141.049.262.07.359Z" transform="translate(-364.722 -230.845)"/><path class="h" d="M573.8,266.07l5.447,3.953s4.539,16.348,5.265,23.356c0,0,3.362,18.776,1.047,26.5s-2.123,23.05-2.123,23.05-1.334,2.817-1.878,2.064.2,2.953.2,2.953-9.312,1.719-9.35-.826,2.137-14.706,2.137-14.706.594-28.932-.248-33.468S573.8,266.07,573.8,266.07Z" transform="translate(-364.496 -146.625)"/><path class="f" d="M521.561,329.52s-3.066,10.442-4.054,11.132.2,3.434.2,3.434S523.29,333.231,521.561,329.52Z" transform="translate(-330.841 -179.258)"/><path class="f" d="M515.7,254.094c.035-.2-3.656,5.036-4.644,5.828S514.659,259.874,515.7,254.094Z" transform="translate(-327.017 -140.462)"/><path class="f" d="M485.942,327.82s-5.632,5.066-4.888,7.072S485.942,327.82,485.942,327.82Z" transform="translate(-308.555 -178.384)"/><path class="f" d="M524.47,480.07a25.178,25.178,0,0,0,12.252,5.342Z" transform="translate(-335.049 -256.689)"/><path class="f" d="M491.5,501.3s4.445,7.771,6.473,7.97S491.5,501.3,491.5,501.3Z" transform="translate(-314.964 -267.608)"/><path class="f" d="M499.333,564c-.2.136-2.521,7.008-4.888,7.217S499.333,564,499.333,564Z" transform="translate(-316.545 -299.856)"/><path class="f" d="M568.33,594.785s4.406-1.375,5.387,3.021C573.718,597.791,573.421,596.416,568.33,594.785Z" transform="translate(-362.395 -315.585)"/><path class="f" d="M559.84,646.192s5.339-1.515,6.473.549S559.84,646.192,559.84,646.192Z" transform="translate(-357.104 -341.854)"/><path class="f" d="M506.818,654c0,.068-5.433,1.515-5.237,2.477s5.8.826,5.995-.69a1.962,1.962,0,0,0-.11-1.114,1.161,1.161,0,0,0-.648-.673Z" transform="translate(-321.207 -346.145)"/><path class="f" d="M554.75,666.957s8.928-1.515,8.38,1.1S554.75,666.957,554.75,666.957Z" transform="translate(-353.882 -352.584)"/><path class="f" d="M420.89,352.44c.049.2,5.88,1.306,6.669,3.919,0,0-5.73-3.715-6.634-3.715" transform="translate(-271.438 -191.047)"/><path class="f" d="M435.964,396.16s-4.843,2.132-4.5,5.342S430.975,400.016,435.964,396.16Z" transform="translate(-278.023 -213.533)"/><path class="f" d="M437.92,426.849s1.763-3.366,3.443-2.749S437.92,426.849,437.92,426.849Z" transform="translate(-282.039 -227.864)"/><path class="f" d="M482.6,164.955a3.046,3.046,0,0,1-.566.588c-1.4,1.132-1.781,2.875-2.444,4.886-.618,1.841-1.3,3.788-2.545,4.833-1.61,1.35-3.729.855-5.4,2.03a6.583,6.583,0,0,0-2.235,5.746,22.07,22.07,0,0,0,.475,2.632,25.749,25.749,0,0,1,.51,5.716,1.35,1.35,0,0,1,0,.17c-3.9-2.713-6.353-8.286-6.31-14.356s2.572-11.574,6.514-14.179,8.607-1.854,12.017,1.934Z" transform="translate(-297.602 -92.835)"/><path class="i" d="M471.684,150.423a11.736,11.736,0,0,0-6.784-7.115,8.36,8.36,0,0,0-6.589-.194,21.96,21.96,0,0,0-3.446,2.249c-2.116,1.486-4.441,2.662-6.033,5.1a3.131,3.131,0,0,0-.6,2.05,6.618,6.618,0,0,0,.6,1.486,6.136,6.136,0,0,1,.031,3.735c-.318,1.214-.768,2.341-.985,3.589a4.943,4.943,0,0,0,.531,3.6,10.392,10.392,0,0,0,1,.971,7.119,7.119,0,0,1,.946,1.5l1.885,3.584a40.04,40.04,0,0,1,2.36,5.046,28.289,28.289,0,0,0,1.46,3.851c.628,1.161,1.606,2.093,2.647,1.967a.476.476,0,0,0,.419-.277,1.03,1.03,0,0,0,.052-.364,25.583,25.583,0,0,0-.5-5.7,21.865,21.865,0,0,1-.475-2.632,6.613,6.613,0,0,1,2.235-5.746c1.676-1.175,3.8-.68,5.4-2.025,1.25-1.049,1.931-3,2.545-4.857.674-2.011,1.047-3.754,2.444-4.886S472.379,152.351,471.684,150.423Z" transform="translate(-287.329 -83.081)"/><path class="f" d="M501.63,693.06s1.746,3.094,1.292,4.857S501.63,693.06,501.63,693.06Z" transform="translate(-321.431 -366.234)"/><path class="f" d="M569.28,704.509s.388-4.148,1.941-4.186,1.631-.224,2.818.413,2.3,1.622,1.945,1.768-2.043-2.37-3.774-1.083A13.92,13.92,0,0,0,569.28,704.509Z" transform="translate(-362.916 -369.941)"/><path class="f" d="M478.223,245.4l4.888-4.765s-7.151-5.877-8-5.051-1.439,8.257-1.439,8.257Z" transform="translate(-303.868 -130.905)"/><path class="j" d="M478.163,244.674l4.888-4.857s-7.151-5.877-8-5.051-1.439,8.665-1.439,8.665Z" transform="translate(-303.831 -130.484)"/><path class="g" d="M478.163,244.674l4.888-4.857s-7.151-5.877-8-5.051-1.439,8.665-1.439,8.665Z" transform="translate(-303.831 -130.484)"/><path class="h" d="M444.689,234.618l-.147-.1a.991.991,0,0,0-1.372.2l-14.665,16.547s-3.188,6.134-2.744,16.717l8.648,17.043s.988-5.77,2.172-4.672c0,0,1.679,29.554,0,33.813s-2.42,20.2-2.42,20.2l5.681.894s.594-10.792,1.927-14.638,2.06-17.072,2.06-17.072,1.2-19.214,1-27.46-1.927-25.979-1.927-25.979S443.39,239.718,444.689,234.618Z" transform="translate(-273.968 -130.297)"/><path class="f" d="M510.533,238.685l-6.093-3.137s7.758-11.821,8.729-5.265Z" transform="translate(-322.86 -127.2)"/><path class="j" d="M510.533,237.835,504.44,234.7s7.758-11.821,8.729-5.265Z" transform="translate(-322.86 -126.763)"/><path class="g" d="M510.533,237.835,504.44,234.7s7.758-11.821,8.729-5.265Z" transform="translate(-322.86 -126.763)"/><path class="f" d="M521.32,228.114a.275.275,0,0,1,.251.078Z" transform="translate(-333.625 -127.1)"/><path class="h" d="M523,226.421l16.166,4.857s4.448,1.374,7.661,16.906-4.4,34.561-4.4,34.561l-1.68-1.986.841,45.358s-7.461,3.915-9.832.486-2.123-19.534-2.123-19.534-2.273-29.685-3.708-34.566-.7-40.064-.7-40.064S523.908,226.149,523,226.421Z" transform="translate(-333.575 -126.228)"/><path class="f" d="M564.965,285.724c-.227.291-.492,14.017.5,24.464a179.9,179.9,0,0,0,2.793,18.83l-1.466-41.851S565.656,284.831,564.965,285.724Z" transform="translate(-360.277 -156.629)"/><path class="f" d="M559.7,261.6c.395.345,2.126,6.047,1.334,8.383S559.7,261.6,559.7,261.6Z" transform="translate(-357.25 -144.326)"/><path class="f" d="M487.877,153.307a11.6,11.6,0,0,0-3.554-5.177,11.61,11.61,0,0,1,2.664,4.371c.7,1.943.492,3.885-.866,4.949s-1.781,2.875-2.444,4.886c-.618,1.841-1.3,3.788-2.549,4.857-1.606,1.35-3.725.85-5.4,2.025a6.632,6.632,0,0,0-2.235,5.75,21.965,21.965,0,0,0,.478,2.628,25.774,25.774,0,0,1,.51,5.716,1.026,1.026,0,0,1-.056.364.465.465,0,0,1-.415.277,1.836,1.836,0,0,1-1.219-.316,2.476,2.476,0,0,0,2.095,1.141.347.347,0,0,0,.348-.159.719.719,0,0,0,.119-.482,25.566,25.566,0,0,0-.506-5.716,21.222,21.222,0,0,1-.478-2.632,6.613,6.613,0,0,1,2.235-5.746c1.676-1.175,3.8-.68,5.4-2.025,1.25-1.049,1.931-3,2.545-4.857.674-2.011,1.047-3.754,2.444-4.886S488.575,155.235,487.877,153.307Z" transform="translate(-303.084 -85.966)"/><path class="k" d="M674,226.123c-4.811-.131-9.057-4.857-11.463-10.632a13.6,13.6,0,0,1-1.159-4.551,7.133,7.133,0,0,1,.133-1.088,14.82,14.82,0,0,0,.349-1.666,4.041,4.041,0,0,0,0-.68v-.039a4.828,4.828,0,0,0-1.047-3.269c-.642-.84-1.449-1.457-2.119-2.292-2.067-2.526-2.7-6.576-2.734-10.432v-.2c.024-1.651.119-3.307.108-4.959.016-.937-.013-1.875-.087-2.807a11,11,0,0,0-2.158-6.207c-3.443-3.885-9.232.16-12.8-3.512-.866-.9-1.568-2.224-2.619-2.574a3.3,3.3,0,0,0-2.392.452c-2.626,1.2-5.555,2.788-6.582,6.314-.587,2.025-.422,4.337-.96,6.387a37.247,37.247,0,0,1-1.5,3.856,7.994,7.994,0,0,0-.559,3.22,4.951,4.951,0,0,0,.171,1.714,4.672,4.672,0,0,0,.855,1.7,6.328,6.328,0,0,1-.51,1.136c-.67,1.141-1.7,1.943-2.4,3.079-1.292,2.084-1.243,4.915-.608,7.363s1.784,4.677,2.577,7.062a5.106,5.106,0,0,1,.262,3.22,9.087,9.087,0,0,1-1.159,1.875,7.151,7.151,0,0,0-1.047,3.254c-7.859,2.5-7.866,11.282-7.866,11.282h0l-4.246,14.852s-.681,2.5-1.48,5.8l-5.024-1.253,3.492,8.13a34.954,34.954,0,0,0-.974,7.926s-1.561,10.2,1.215,11.982L615.8,284.4a3.248,3.248,0,0,0,.848.529l.248.155a.494.494,0,0,0,.573,0h.084a.616.616,0,0,0,.349-.073.919.919,0,0,0,.307-.461.2.2,0,0,1,0-.049l1.833-.738,1.554,2.56c.7.685,1.4,1.277,2.057,1.812l-2.406,33.23s-.387,44.2-1.561,54.27a39.1,39.1,0,0,0-.272,8l-.045.107c.29,2.841,1.047,3.4,1.047,3.4v-.039a.227.227,0,0,0,.045.039,34.736,34.736,0,0,1,1.257-3.749v.728c-.025,3.749-.108,9-.388,12.414-.475,5.828,1.215,25.037,1.215,25.037l.583,17.484a21.456,21.456,0,0,1-1.432,8.519c-1.4,3.492-3.181,8.407-3.31,10.588a3.041,3.041,0,0,0,0,.355h0l-3,5.012a2.525,2.525,0,0,0,1.474,3.531c1.421.549,3.872,0,5.841-.646,1.77-.567,3.025-2.758,3.027-5.284a22,22,0,0,1,2.472-6.6l.492,4.026,3.3,1.136.423-11.035a6.6,6.6,0,0,0,.227-1.943h0c.649-7.849-1.529-7.144-1.529-7.144a.488.488,0,0,1,.1.272l-.1-.267h0c-1.337-3.672-.7-9.714-.7-9.714s1.746-17.484,2.343-22.1c.43-3.264.251-13.949.108-19.913,0-.248,0-.486-.017-.724a153.657,153.657,0,0,0,15.771-.923v.719l-.81,41.307a30.509,30.509,0,0,1-1.138,7.684.529.529,0,0,1-.038.141,45.086,45.086,0,0,0-1.61,10.826L644.644,460v.364h0c-.656.35-1.693,1.365-1.721,4.308-.045,4.313,5.419,2.875,5.419,2.875,5.461,0,5.506-7.907,5.506-7.907s.171-7.251.433-12.1-.824-3.783-.824-3.783l-.084,13.8V445.563l.084-1.753v-.049h0v-.374l.688-14.235s5.031-23.721,5.81-28.271c.555-3.235.325-12.977.143-18.364a5.934,5.934,0,0,0-.028-.714,29.4,29.4,0,0,1,3.492-.214h.255s-.258-38.1-.911-52.453-1.69-27.494-4.291-31.448c-1.571-2.39-3.76-9.767-5.237-15.231A44.865,44.865,0,0,0,663,286.828c8.237,2.4,7.109-7.547,7.109-7.547l-.835-18.81h.056a132.585,132.585,0,0,0-.908-14.706,56.971,56.971,0,0,0-2.123-10.685c.894-.486,1.777-1.005,2.643-1.54,2.238-1.374,4.759-3.322,5.08-6.678h-.108A5.914,5.914,0,0,0,674,226.123Zm-51.057,27.2h0c.017,1.943-.035,5.313-.119,9.039L620.21,257.5l2.622-5.916ZM657.985,263.185Zm1.089,7.348-4.358-1.943a27.516,27.516,0,0,1,2.692-4.633l.377-.486-.136.039.209-.267.126-.039-.2.267.237-.068a12.3,12.3,0,0,0,1.484,4.153c1.564,2.375-.43,2.977-.43,2.977Z" transform="translate(-381.838 -97.79)"/><path class="l" d="M642.865,715.66l-.51,13.444-3.251-1.132-.684-5.59Z" transform="translate(-393.72 -368.076)"/><path class="f" d="M642.865,715.66l-.51,13.444-3.251-1.132-.684-5.59Z" transform="translate(-393.72 -368.076)"/><path class="m" d="M716.48,676.321l4.958,1.428,3.677-4.517V660.5l.084-1.739v-.053h0v-.369l.684-14.148s4.961-23.551,5.733-28.072c.545-3.206.318-12.88.136-18.227-.073-2.19-.136-3.657-.136-3.657L720.67,590.55l-.23,11.7-.8,41.011a30.59,30.59,0,0,1-1.121,7.63l-.038.141a44.922,44.922,0,0,0-1.589,10.743l-.37,13.04v.359Z" transform="translate(-453.127 -313.511)"/><path class="f" d="M741.45,730.14v.359h0v-.369Z" transform="translate(-469.473 -385.3)"/><path class="f" d="M716.48,762.732l4.958,1.428,3.677-4.517V758.56a1.59,1.59,0,0,1-.527,1.166l-.052.044a7.6,7.6,0,0,1-5.566,1.53l-1.934-.228a1.411,1.411,0,0,0-.513.175v.359Z" transform="translate(-453.551 -399.922)"/><path class="e" d="M721.424,745.787l.052-.039a1.619,1.619,0,0,0,.534-1.263l.08-13.7s1.068-1.064.81,3.754-.426,12.016-.426,12.016-.042,7.849-5.43,7.849c0,0-5.387,1.428-5.345-2.856s2.224-4.459,2.224-4.459l1.934.233A7.588,7.588,0,0,0,721.424,745.787Z" transform="translate(-450.446 -385.585)"/><path class="m" d="M642.52,678.159c.126,3.094,6.669,1.307,6.669,1.307l4.4-11.889s3.677-3.929,1.837-7.377a6.115,6.115,0,0,1-.269-.588l-.017-.029h0c-.038-.088-.073-.18-.108-.277h0c-1.32-3.643-.67-9.617-.67-9.617s1.707-17.368,2.308-21.948c.422-3.235.248-13.847.108-19.782-.056-2.467-.108-4.123-.108-4.123l-10.862-4.046V604.3c-.024,3.725-.108,8.936-.384,12.327-.468,5.765,1.2,24.857,1.2,24.857l.576,17.373a21.387,21.387,0,0,1-1.4,8.456c-1.362,3.468-3.142,8.354-3.265,10.515a2.947,2.947,0,0,0-.018.335Z" transform="translate(-407.648 -318.264)"/><path class="f" d="M642.514,741.508c.126,3.094,6.669,1.306,6.669,1.306l4.4-11.889s3.677-3.929,1.836-7.378a6.087,6.087,0,0,1-.269-.588,38.063,38.063,0,0,1-1.48,6.314s-3.635,10.117-4.79,12.433-6.177-.432-6.365-.529A2.967,2.967,0,0,0,642.514,741.508Z" transform="translate(-407.698 -381.612)"/><path class="e" d="M648.98,722.283s2.151-.695,1.508,7.1h0a5.737,5.737,0,0,1-1.7,4.454c-1.54,1.345-3.914,4.24-5.115,9.869h0c0,2.5-1.235,4.674-2.985,5.245-1.941.631-4.361,1.185-5.761.641a2.514,2.514,0,0,1-1.452-3.507l2.992-4.939s5.216,2.856,6.369.534,4.79-12.429,4.79-12.429S649.62,722.939,648.98,722.283Z" transform="translate(-401.756 -381.256)"/><path class="f" d="M728.05,593.52l-.23,11.7c2.915-.393,5-.942,5.36-1.714.772-1.661,3.572-2.36,5.953-2.647-.073-2.19-.136-3.657-.136-3.657Z" transform="translate(-460.373 -315.039)"/><path class="f" d="M651.94,607.227a5.544,5.544,0,0,1,1.2-2.011c1.152-.889,1.027,5.712,1.027,5.712s3.841.049,8.746-.039c-.056-2.467-.108-4.128-.108-4.128L651.94,602.72S651.961,604.595,651.94,607.227Z" transform="translate(-413.643 -319.771)"/><path class="d" d="M646.28,498.444s1.285-4.857,2.444-5.721,1.026,5.707,1.026,5.707,28.219.359,29.629-2.676S689,492.9,689,492.9s-.255-37.825-.9-52.094-1.665-27.3-4.232-31.224c-1.659-2.54-4.019-10.758-5.478-16.236-.793-2.992-1.32-5.172-1.32-5.172l-26.934,2.137-.22,3.035-2.86,39.787s-.384,43.891-1.54,53.881S646.28,498.444,646.28,498.444Z" transform="translate(-407.475 -209.423)"/><g class="n" transform="translate(237.703 178.747)"><path d="M688.709,495.753c1.4-3.031,9.619-2.856,9.619-2.856s-.255-37.825-.9-52.094-1.666-27.3-4.232-31.224c-1.665-2.55-4.019-10.758-5.478-16.236-.667-2.516-1.145-4.454-1.278-5.007l2.095-.165s.527,2.181,1.323,5.172c1.46,5.479,3.816,13.7,5.475,16.236,2.566,3.924,3.593,16.95,4.232,31.224s.9,52.094.9,52.094-8.209-.175-9.623,2.856c-1.2,2.589-21.969,2.71-28,2.686C670.584,498.414,687.619,498.094,688.709,495.753Z" transform="translate(-656.701 -388.17)"/><path d="M646.591,603.352c.52-.4.779.714.908,2.069a34.1,34.1,0,0,0-1.211,3.652s-.744-.559-1.048-3.4A6.61,6.61,0,0,1,646.591,603.352Z" transform="translate(-645.24 -498.799)"/></g><path class="i" d="M662.218,194.057c-1.865,3.536.021,8.563-1.98,12-.66,1.136-1.676,1.943-2.364,3.06-1.274,2.069-1.226,4.881-.6,7.309s1.746,4.643,2.542,7.013a5.054,5.054,0,0,1,.258,3.2,8.928,8.928,0,0,1-1.145,1.86,8.888,8.888,0,0,0-.628,7.12,24.362,24.362,0,0,0,3.313,6.362c.513.782,1.163,1.646,2.018,1.622a2.306,2.306,0,0,0,1.267-.578c6.154-4.372,8.745-14.706,5.88-23.453-1.082-3.609-2.888-7.067-2.9-10.879,0-3.026,1.117-5.916,1.316-8.927.241-3.662-1.316-9.476-4.494-11.074C664.906,191.041,663.164,192.24,662.218,194.057Z" transform="translate(-416.431 -106.827)"/><path class="f" d="M662.218,194.057c-1.865,3.536.021,8.563-1.98,12-.66,1.136-1.676,1.943-2.364,3.06-1.274,2.069-1.226,4.881-.6,7.309s1.746,4.643,2.542,7.013a5.054,5.054,0,0,1,.258,3.2,8.928,8.928,0,0,1-1.145,1.86,8.888,8.888,0,0,0-.628,7.12,24.362,24.362,0,0,0,3.313,6.362c.513.782,1.163,1.646,2.018,1.622a2.306,2.306,0,0,0,1.267-.578c6.154-4.372,8.745-14.706,5.88-23.453-1.082-3.609-2.888-7.067-2.9-10.879,0-3.026,1.117-5.916,1.316-8.927.241-3.662-1.316-9.476-4.494-11.074C664.906,191.041,663.164,192.24,662.218,194.057Z" transform="translate(-416.431 -106.827)"/><path class="f" d="M693.311,464.55c-3.732.272-7.245,2.506-10.513,5.032s-6.431,5.386-9.948,7.178" transform="translate(-425.965 -248.707)"/><path class="f" d="M692.151,489.74c-3.692.49-7.133,2.818-9.689,6.557-.908,1.336-1.69,2.832-2.636,4.114a11.479,11.479,0,0,1-5.2,4.094" transform="translate(-427.238 -261.663)"/><path class="f" d="M687.617,508.91a17.048,17.048,0,0,0-7.793,6.537c-.573.86-1.093,1.778-1.665,2.637-3.09,4.614-7.454,7.062-11.669,9.379" transform="translate(-422.012 -271.522)"/><path class="m" d="M698.475,242.794q.124,6.223.768,12.395c.349,2.914.838,5.537,1.54,6.7,2.053,3.4-10,7.941-10,7.941l-7.119-7.674s5.642-7.227,3.013-14.274S698.475,242.794,698.475,242.794Z" transform="translate(-432.806 -134.524)"/><path class="f" d="M658.79,393.342h28.474c-.793-2.992-1.32-5.172-1.32-5.172l-26.934,2.137Z" transform="translate(-416.829 -209.423)"/><path class="g" d="M643.179,333h30.443a19.708,19.708,0,0,1,1.218-11.229,25.584,25.584,0,0,1,3.188-5.75l.209-.267,10.628-3.273.573-.175s.087-26.882-6.756-30.574a40.121,40.121,0,0,1-10.946-8.679l-9.4,4.041-6.927-4.857c-2.224,3.327-8.125,2.02-8.125,2.02-9.661,1.545-9.661,11.656-9.661,11.656s5.642,18.315,6.072,18.315S643.179,333,643.179,333Z" transform="translate(-402.33 -149.798)"/><path class="f" d="M668.13,356.59s-6.208-1.914-8.32-5.26" transform="translate(-418.641 -190.476)"/><path class="f" d="M759.87,341.51l-7.2,8.208q.078.98.237,1.943l.21-.267,10.628-3.273Z" transform="translate(-475.698 -185.425)"/><path class="f" d="M717.46,379.126s1.575,1.234,3.987,2.856h4.138a19.708,19.708,0,0,1,1.219-11.229l-7.294-3.283C721.992,370.68,717.46,379.126,717.46,379.126Z" transform="translate(-454.111 -198.777)"/><path class="g" d="M625.947,293.76l-4.274,3.21-4.19,14.75s-4.361,16.173-3.935,20.457c0,0-1.536,10.112,1.2,11.894l7.123,4.488a.54.54,0,0,0,.752-.214,1.211,1.211,0,0,0,.1-1.058c-1.016-2.676-2.133-6.863-.349-9.165l-2.053-5.945,7.42-16.892,2.479-5.828Z" transform="translate(-389.398 -160.866)"/><path class="f" d="M676.986,350.871a7.91,7.91,0,0,0,5.758,6.552l4.539,5.173,4.829,3.045,1.969,1.238.834-8.388-1.9-1.457-2.21-1.68s-4.986-12.565-12.88-7.285A2.807,2.807,0,0,0,676.986,350.871Z" transform="translate(-428.626 -188.132)"/><path class="m" d="M677.74,349.431a7.9,7.9,0,0,0,5.754,6.552l4.539,5.172,4.832,3.045,1.966,1.238.835-8.388-1.9-1.457-2.193-1.666s-4.989-12.565-12.884-7.261a2.8,2.8,0,0,0-.953,2.763Z" transform="translate(-429.095 -187.406)"/><ellipse class="f" cx="11.03" cy="15.343" rx="11.03" ry="15.343" transform="translate(246.547 88.464)"/><ellipse class="m" cx="11.03" cy="15.343" rx="11.03" ry="15.343" transform="translate(246.547 88.109)"/><path class="f" d="M716.7,284.041l-3.317-8.966s4.853-2.73,5.206-5.891,4.651,3.706,3.722,5.984S716.7,284.041,716.7,284.041Z" transform="translate(-451.614 -147.806)"/><path class="g" d="M716.7,282.571l-3.317-8.966s4.853-2.729,5.206-5.891,4.651,3.711,3.722,5.984S716.7,282.571,716.7,282.571Z" transform="translate(-451.614 -147.05)"/><path class="o" d="M620.476,343.332,638.8,377.606s-6.756,5.114-16.061-4.041l-4.019-6.664L607.25,340Z" transform="translate(-384.983 -184.648)"/><path class="m" d="M634,375.879l1.669-.063s10.2-13.764,12.7-6.8-6.351,13.473-6.351,13.473l-2.692,2.02-3.509,1.457-2.245-4.191Z" transform="translate(-402.091 -198.56)"/><path class="f" d="M632.158,391.12a4.746,4.746,0,0,1,.042,2.4.924.924,0,0,1-.3.461.581.581,0,0,1-.349.068,3.282,3.282,0,0,1-2.3-1.583,15.744,15.744,0,0,1-1.491-3,7.164,7.164,0,0,1-.765-3.575,5.108,5.108,0,0,1,1.9-3.079c1.69-1.554,1.746.257,2.116,2.258S631.77,389.1,632.158,391.12Z" transform="translate(-398.546 -206.365)"/><path class="g" d="M631.425,391.12a4.786,4.786,0,0,1,.042,2.4.924.924,0,0,1-.3.461.586.586,0,0,1-.349.068,3.266,3.266,0,0,1-2.3-1.583,15.547,15.547,0,0,1-1.494-3,7.123,7.123,0,0,1-.761-3.575,5.1,5.1,0,0,1,1.893-3.079c1.693-1.554,1.746.257,2.119,2.258S631.034,389.1,631.425,391.12Z" transform="translate(-398.094 -206.365)"/><path class="f" d="M623.85,315.816l.852-2.006-.744,3.725Z" transform="translate(-384.928 -161.397)"/><path class="f" d="M721.19,375.036l1.966,1.238.835-8.388-1.9-1.457C723.4,368.518,722.258,372.38,721.19,375.036Z" transform="translate(-456.806 -198.242)"/><path class="f" d="M726.933,362.12s-6.348.539-9.043-1.87" transform="translate(-454.395 -195.063)"/><g class="n" transform="translate(244.94 123.141)"><path d="M736.258,324.109a25.63,25.63,0,0,1,3.188-5.755,8.175,8.175,0,0,1,.939-.709l9.9-2.827.573-.175s.087-26.882-6.753-30.574a40.109,40.109,0,0,1-10.67-8.359l.751-.321a40.016,40.016,0,0,0,10.946,8.679c6.843,3.686,6.753,30.574,6.753,30.574h-1.027l-10.125,2.7s-.437.588-.569.758a28.374,28.374,0,0,0-3.237,5.954,20.235,20.235,0,0,0-.848,11.287h-1.047A19.914,19.914,0,0,1,736.258,324.109Z" transform="translate(-709.233 -274.559)"/><path d="M664.13,277.9c.164-.034.321-.068.492-.092a12.858,12.858,0,0,0,2.1.238A13.732,13.732,0,0,1,664.13,277.9Z" transform="translate(-664.13 -275.804)"/><path d="M694.024,278.551l-6.264-4.41a4.108,4.108,0,0,0,.349-.461l6.536,4.6Z" transform="translate(-679.509 -273.68)"/></g><path class="g" d="M737.677,340l4.19,7.139.855,19.388s1.11,9.869-7.011,7.489-17.521-9.733-17.521-9.733,4.539-8.446,2.053-11.656l11.631,5.236s1.966-.6.426-2.972-1.812-6.663-1.812-6.663Z" transform="translate(-453.59 -184.648)"/><path class="f" d="M779.42,382.17l2.308,3.686A4.447,4.447,0,0,1,779.42,382.17Z" transform="translate(-492.756 -206.337)"/><path class="f" d="M736.99,360.8l3.593,6.421-1.795.6Z" transform="translate(-454.562 -185.565)"/><path class="f" d="M665.242,196.212a6.9,6.9,0,0,1,.384-4.182,38.668,38.668,0,0,0,1.484-3.832c.527-2.03.367-4.327.943-6.314,1.016-3.521,3.9-5.095,6.491-6.314a3.269,3.269,0,0,1,2.36-.447c1.047.345,1.728,1.666,2.584,2.555,3.513,3.643,9.225-.369,12.622,3.487,1.3,1.457,1.931,3.842,2.126,6.158s0,4.667-.021,7c-.056,4.089.5,8.563,2.7,11.273.663.816,1.445,1.428,2.095,2.273a4.776,4.776,0,0,1,1.047,3.249,14.8,14.8,0,0,1-.349,1.651,11.164,11.164,0,0,0,1.013,6.314c2.374,5.716,6.561,10.428,11.306,10.559-.318,3.332-2.793,5.265-5.01,6.63-2.793,1.744-5.768,3.453-8.844,3.235s-6.285-2.958-6.823-7.173c-.185-1.457-.161-3.21-1.047-3.968-.545-.461-1.25-.345-1.837-.69-.848-.486-1.267-1.812-1.547-3.031a37.135,37.135,0,0,1-.911-7.771c-.038-3.128.258-6.542-1.016-9.116-1.18-2.385-3.275-3.594-4.637-5.784-1.257-2.03-2.622-4.478-4.682-4.857C672.818,196.562,666.924,201.948,665.242,196.212Z" transform="translate(-419.465 -99.803)"/><path class="i" d="M665.242,194.742a6.9,6.9,0,0,1,.384-4.182,38.672,38.672,0,0,0,1.484-3.832c.527-2.03.367-4.327.943-6.314,1.016-3.526,3.9-5.1,6.491-6.314a3.268,3.268,0,0,1,2.36-.447c1.047.345,1.728,1.666,2.584,2.555,3.513,3.643,9.225-.369,12.622,3.487,1.3,1.457,1.931,3.842,2.126,6.163s0,4.663-.021,7c-.056,4.089.5,8.563,2.7,11.273.663.816,1.445,1.428,2.095,2.273a4.776,4.776,0,0,1,1.047,3.249,14.793,14.793,0,0,1-.349,1.651,11.164,11.164,0,0,0,1.013,6.314c2.381,5.7,6.55,10.423,11.3,10.554-.318,3.332-2.793,5.265-5.01,6.634-2.793,1.739-5.768,3.448-8.844,3.23s-6.285-2.958-6.823-7.173c-.185-1.457-.161-3.21-1.047-3.968-.545-.461-1.25-.345-1.836-.69-.849-.486-1.268-1.812-1.547-3.031a37.086,37.086,0,0,1-.911-7.771c-.039-3.128.258-6.542-1.016-9.116-1.18-2.385-3.275-3.594-4.637-5.784-1.257-2.03-2.622-4.478-4.682-4.857C672.818,195.092,666.924,200.488,665.242,194.742Z" transform="translate(-419.466 -99.047)"/><path class="f" d="M683.944,283.4l6.323-7.14s-4.33-3.264-4.846-6.047-3.98,1.321-3.628,3.817S683.944,283.4,683.944,283.4Z" transform="translate(-432.164 -148.277)"/><path class="g" d="M684.693,281.2l6.323-7.135s-4.33-3.264-4.825-6.047-3.98,1.321-3.628,3.817S684.693,281.2,684.693,281.2Z" transform="translate(-432.64 -147.146)"/><ellipse class="f" cx="0.503" cy="0.699" rx="0.503" ry="0.699" transform="translate(258.494 132.189)"/><ellipse class="f" cx="0.503" cy="0.699" rx="0.503" ry="0.699" transform="translate(258.494 136.075)"/><ellipse class="f" cx="0.503" cy="0.699" rx="0.503" ry="0.699" transform="translate(258.494 139.956)"/><g class="n" transform="translate(245.673 79.804)"><path d="M671.667,190.424c.5-1.909.391-4.051.859-5.974a7.61,7.61,0,0,0-.534,1.37c-.58,2.006-.416,4.3-.946,6.314l-.035.117a13.241,13.241,0,0,0,.656-1.826Z" transform="translate(-669.012 -184.45)"/><path d="M707.833,249.822c-2.793,1.739-5.768,3.448-8.844,3.23s-6.285-2.958-6.823-7.169c-.185-1.457-.161-3.215-1.047-3.973-.545-.461-1.25-.345-1.836-.69-.849-.486-1.267-1.812-1.547-3.031a37.11,37.11,0,0,1-.911-7.771c-.038-3.123.262-6.537-1.013-9.116-1.184-2.385-3.279-3.589-4.64-5.784-1.257-2.025-2.622-4.478-4.682-4.857-2.825-.534-8.729,4.857-10.4-.884a6.168,6.168,0,0,1,.108-3.317c-.122.287-.241.573-.349.865a6.928,6.928,0,0,0-.381,4.187c1.679,5.731,7.573.345,10.4.884,2.06.389,3.425,2.841,4.682,4.857,1.362,2.2,3.457,3.4,4.637,5.789,1.278,2.574.978,5.988,1.016,9.111a37.1,37.1,0,0,0,.911,7.771c.279,1.224.7,2.535,1.547,3.031.587.345,1.292.233,1.837.69.9.758.876,2.53,1.047,3.973.545,4.211,3.75,6.95,6.823,7.169s6.033-1.486,8.844-3.23c2.025-1.253,4.281-2.987,4.888-5.828A11.315,11.315,0,0,1,707.833,249.822Z" transform="translate(-665.288 -195.77)"/></g><path class="p" d="M839.131,294.4c-7.392-5.916-10.185-7.373-10.2-7.373l-.154-.151a8.7,8.7,0,0,1-1.861-3.274q-.013-.352,0-.7a.408.408,0,0,0,0,.068c.115-3.133,1.718-5.984,3.237-8.47l3.886-6.358a5.446,5.446,0,0,0,1.107-3.56v-.554c-.021-1.578-.052-3.162-.094-4.74-.035-1.379-.29-3.118-1.281-3.4-.517-.146-1.2.112-1.473-.486a1.6,1.6,0,0,1-.066-.821.4.4,0,0,0,0,.068v-.078a24.981,24.981,0,0,0,.367-3.249,6.059,6.059,0,0,0-.161-1.646c-.573-2.288-2.552-3.23-4.3-3.662s-3.711-.8-4.808-2.705q-.44-.953-.957-1.831a3.512,3.512,0,0,0-1.788-1.229,7.533,7.533,0,0,0-6.5.787c-.845.525-1.693,1.234-2.622,1.156s-1.788-1.01-2.737-1.234c-1.536-.364-3.006,1.2-3.764,3.065a9.849,9.849,0,0,0-.7,3.613v.214h0a6.592,6.592,0,0,0,1,3.691c.663.971,1.648,1.613,1.924,2.87.112.51.084,1.064.185,1.583a1.851,1.851,0,0,0,.042.189l-.049.092a20.353,20.353,0,0,0-2.444,9.879c.035,7.135,3.384,13.42,8.282,15.542,0,.16,0,.321,0,.486a8.561,8.561,0,0,1-1.606,5.44l-10.471,5.818s-6.313-1.044-8.589,11.787a30.2,30.2,0,0,0-.391,6.508,25.087,25.087,0,0,1-1.746,9.748c-2.587,7.052-2,23.24,3.3,24.842,5,1.515,6.952.884,7.158.811v.282c-.084,3.04-.876,29.238-3.757,32.4-.8.879-.65,1.457,0,1.87,0,0,0,.17-.018.486-.087,1.943-.531,9.228-2.444,13.366-2.238,4.808-2,32.541-2,32.541L791.1,444.432s.939,10.1,0,11.86c-.841,1.569-1.959,38.922-2.193,47.024h-.1a2.9,2.9,0,0,0-2.263,1.943c-1.236,2.793-5.565,7.955-5.565,7.955-.939,1.855-4.413,3.633-6.25,4.468a3.457,3.457,0,0,0-.7.427,4.853,4.853,0,0,0-1.578,2.312,3.351,3.351,0,0,0-.167,1.943c.468,1.6,10.234,2.725,12.706,1.117,1.941-1.258,9.637-2.914,12.831-3.565,1.193-.209,2.133-1.516,2.284-3.176a2.731,2.731,0,0,0-.293-1.588h0c-.611-1.054-.922-3.934-1.047-5.828a2.824,2.824,0,0,0,.719-.593,58.216,58.216,0,0,1,1.746-17.149c2.353-8.655,3.059-24.682,2.472-35.1,0,0,7.175-42.954,12.825-46.96h0c.087.155,2.828,5.046,3.177,20.195.349,15.386,4.351,25.484,4.351,25.484s-1.767,26.125,0,35.9l-2.308,15.42c-.171-.2-.279-.354-.279-.354s.07.427.164,1.112l-.049.33.1.029a41.9,41.9,0,0,1,.489,7.285c-.091,1.122-.318,2.661-.471,4.172-.244,2.375-.311,4.677.587,5.182,1.473.826,10.126,1.943,11.592-.7a4.993,4.993,0,0,0,.426-3.958,4.568,4.568,0,0,0-.426-1.01s-2.3-5.221-1.648-8.9a3.611,3.611,0,0,0-.276-2.113,148.477,148.477,0,0,1,1.98-17.271c1.473-7.713,4.577-24.624,2.294-35.741h0q-.129-.656-.293-1.282a66.016,66.016,0,0,1-1.3-18.752,52.869,52.869,0,0,1,0-16.348c1.414-8.975,2.4-17.79,2.4-17.79s.779-11.86.1-19.131c0-.155-.031-.311-.045-.486l.37-.117s-2-12.341-2.706-20.195c-.168-1.855-.384-4.2-.621-6.707a9.6,9.6,0,0,0,1.917-.665c6.351-3.045,8.352-30.6,8.352-30.6v-8.742S846.544,300.33,839.131,294.4ZM791.8,507.245c-.2-.136-.311-.228-.311-.228h0Z" transform="translate(-482.872 -133.133)"/><path class="q" d="M867.246,596.765c2.755,11.02-.461,28.908-1.955,36.912a152.761,152.761,0,0,0-1.952,17.572,19.363,19.363,0,0,1-10.1-.321l2.413-16.45c-1.725-9.743,0-35.78,0-35.78s-3.9-10.063-4.249-25.4c-.349-15.09-3.013-19.971-3.1-20.122h0c-5.51,3.992-12.514,46.8-12.514,46.8.573,10.379-.119,26.353-2.413,34.969a59,59,0,0,0-1.721,17.086,2.936,2.936,0,0,1-3.142.835c-3.279-.738-7.21-4.667-7.21-4.667s1.261-46.625,2.182-48.393,0-11.821,0-11.821l1.491-16.29s-.23-27.635,1.952-32.424c1.885-4.138,2.318-11.413,2.4-13.322v-.486l3.324-5.537s32.15-3.356,34.567,0c.59.821.957,2.7,1.173,5.051.663,7.246-.1,19.063-.1,19.063s-.964,8.786-2.343,17.727a53.829,53.829,0,0,0,0,16.294A67.093,67.093,0,0,0,867.246,596.765Z" transform="translate(-515.135 -276.423)"/><path class="l" d="M924.533,802.995c-1.435,2.637-9.874,1.52-11.313.7-.876-.486-.81-2.8-.573-5.168.15-1.5.37-3.036.461-4.153a52.541,52.541,0,0,0-.7-8.708s1.892,2.8,2.35,0A2.689,2.689,0,0,1,916.4,783.5a3.188,3.188,0,0,1,2.982.257c1.491.9,3.977,2.822,3.533,5.415-.632,3.667,1.606,8.873,1.606,8.873a4.612,4.612,0,0,1,.419,1A5.069,5.069,0,0,1,924.533,802.995Z" transform="translate(-573.982 -412.617)"/><path class="f" d="M924.688,819.178c-1.435,2.637-9.874,1.52-11.313.7-.876-.486-.81-2.8-.573-5.168.908.593,2.444,1.083,5.017.753a10.183,10.183,0,0,1,1.805-.078,30.243,30.243,0,0,0,5.482-.155A5.066,5.066,0,0,1,924.688,819.178Z" transform="translate(-574.135 -428.801)"/><path class="f" d="M849.216,633.464c.573,10.379-.119,26.353-2.413,34.969a59,59,0,0,0-1.721,17.086,2.936,2.936,0,0,1-3.142.835c.7-6.736,3.645-35.761,5.534-58.694,2.154-26.115,12.221-44.08,12.221-44.08l2.008,3.074C856.221,590.656,849.216,633.464,849.216,633.464Z" transform="translate(-530.05 -309.927)"/><path class="r" d="M893.64,320.355l-1.4,9.582-6.868,16.052-8.467-5.032s-11.522-16.771-4.277-19.165a5.738,5.738,0,0,0,2.4-1.486,8.278,8.278,0,0,0,1.875-5.78,23.6,23.6,0,0,0-1.166-6.868l14.811-6.469a44.948,44.948,0,0,0-1.047,8.344c-.115,5.614,1.4,8.378,2.615,9.714A4.223,4.223,0,0,0,893.64,320.355Z" transform="translate(-547.173 -164.688)"/><path class="f" d="M900.8,301.19a44.938,44.938,0,0,0-1.047,8.344,14.833,14.833,0,0,1-.862,1.277c-3.116,4.139-7.613,5.566-11.711,3.715A23.581,23.581,0,0,0,886,307.659Z" transform="translate(-557.555 -164.688)"/><path class="r" d="M889.578,278.51c0,9-5.242,16.3-11.712,16.3s-11.717-7.3-11.717-16.3,5.245-16.294,11.715-16.293c3.11-.02,6.1,1.689,8.3,4.749A19.893,19.893,0,0,1,889.578,278.51Z" transform="translate(-544.656 -144.644)"/><path class="f" d="M893.64,339.462l-1.4,9.582L885.375,365.1l-8.467-5.032s-11.522-16.771-4.277-19.165a5.738,5.738,0,0,0,2.4-1.486c-1.306,4.993,4.085,15.381,4.085,15.381.628,1.287,2.067.486,2.067.486,3.474-.733,9.867-14.629,10.911-16.941a4.216,4.216,0,0,0,1.543,1.122Z" transform="translate(-547.173 -183.795)"/><path class="f" d="M883.408,524.981c-2.039.646-13.32,4.119-17.6,3.249-4.707-.971-13.858-1.593-13.858-1.593s-5.827.437-7.622-.7v-.486l3.324-5.537s32.15-3.356,34.566,0C882.825,520.751,883.191,522.625,883.408,524.981Z" transform="translate(-529.963 -276.413)"/><path class="g" d="M847.364,355.435s-6.058-11.656-3.774-16.222l-10.234,5.828S827.2,344,824.976,356.79a30.72,30.72,0,0,0-.381,6.489,25.593,25.593,0,0,1-1.686,9.714c-2.525,7.028-1.952,23.162,3.216,24.77s7,.8,7,.8-.7,29.228-3.673,32.584,7.612,2.555,7.612,2.555,9.151.641,13.862,1.6,17.912-3.356,17.912-3.356-1.952-12.3-2.643-20.122-2.3-24.493-2.3-24.493L875.6,365.256s2.067-13.337-5.167-19.247-9.954-7.358-9.954-7.358-7.269,16.465-11.058,17.261C849.431,355.911,847.992,356.717,847.364,355.435Z" transform="translate(-514.606 -183.954)"/><path class="f" d="M853.542,382.74s-.112,5.275.576,7.348,3.216,13.6,3.216,13.6H851.59s3.1-4.633,2.873-6.872S853.542,382.74,853.542,382.74Z" transform="translate(-537.032 -206.63)"/><path class="r" d="M871.749,440.925s-12.681-4.313-13.861-7.985-4.438-11.894-4.438-11.894l1.337-2.506,6.166,6.732s7.332,8.145,10.8,8.946S871.749,440.925,871.749,440.925Z" transform="translate(-537.127 -225.043)"/><path class="s" d="M871.749,440.925s-12.681-4.313-13.861-7.985-4.438-11.894-4.438-11.894l1.337-2.506,6.166,6.732s7.332,8.145,10.8,8.946S871.749,440.925,871.749,440.925Z" transform="translate(-537.127 -225.043)"/><path class="r" d="M894.558,421.767v9.568h-1.1a25.458,25.458,0,0,0-15.62,5.628l-2.068,1.594-.555.432-3.561-11.171,3.331-4.153h.171c.813.112,4.336.52,5.831-.18,1.418-.67,3.177-2.793,7.353-1.311,2.057.733,3.816,3.939,5.81,2.938Z" transform="translate(-548.08 -226.648)"/><path class="f" d="M922.393,374.5l2.294,3.594v8.708s-1.952,27.47-8.149,30.506-17.269-1.758-17.269-1.758-2.86-10.539-1.522-11.171,11.819-4.488,11.819-4.488-.147-16.115,2.147-20.909c0,0-1.491-15.012,3.677-15.333S922.393,374.5,922.393,374.5Z" transform="translate(-563.542 -196.81)"/><path class="g" d="M923.4,374.5l2.3,3.594v8.708s-1.952,27.47-8.153,30.506-17.269-1.758-17.269-1.758-2.86-10.539-1.519-11.171,11.819-4.488,11.819-4.488-.15-16.115,2.147-20.909c0,0-1.494-15.012,3.673-15.333S923.4,374.5,923.4,374.5Z" transform="translate(-564.16 -196.81)"/><path class="f" d="M890.831,285.364a8.778,8.778,0,0,0-.262-3.113c-.325-.971-1.083-1.7-1.823-1.457-.981.321-1.4,2.1-2.367,2.526-.813.359-1.7-.442-2.095-1.5a10.111,10.111,0,0,1-.4-3.477v-4a8.774,8.774,0,0,0-.677-4.162,4.529,4.529,0,0,0-3.939-1.982,2.929,2.929,0,0,0-2.248,1.258,2.479,2.479,0,0,1-2.364,1.171,2.4,2.4,0,0,1-1.648-1.982V268.6c2.656-4.912,7.074-7.327,11.424-6.243s7.89,5.482,9.155,11.371.039,12.268-3.171,16.494Q890.722,287.81,890.831,285.364Z" transform="translate(-549.064 -144.583)"/><path class="t" d="M869,259.691a2.425,2.425,0,0,1-1.651-1.986c-.094-.515-.07-1.064-.178-1.574-.269-1.258-1.233-1.909-1.879-2.866-1.292-1.909-1.208-5.046-.293-7.344.74-1.85,2.172-3.4,3.673-3.05.929.223,1.746,1.141,2.675,1.229s1.746-.626,2.559-1.151a7.187,7.187,0,0,1,6.362-.787,3.441,3.441,0,0,1,1.746,1.229q.5.876.932,1.821c1.068,1.894,2.985,2.268,4.693,2.7s3.638,1.37,4.19,3.652a13.146,13.146,0,0,1-.2,4.73,1.952,1.952,0,0,0,.045.971c.269.612.936.355,1.439.486.967.287,1.215,2.02,1.253,3.4q.059,2.36.091,4.726a8.3,8.3,0,0,1-.1,1.748,6.905,6.905,0,0,1-.974,2.2l-3.792,6.338c-1.683,2.807-3.467,6.081-3.142,9.714-.8.486-1.746-.461-2-1.622a10,10,0,0,1,.126-3.6,60.536,60.536,0,0,0,.608-6.241,8.756,8.756,0,0,0-.262-3.108c-.325-.971-1.082-1.7-1.823-1.457-.985.321-1.4,2.1-2.367,2.526-.814.359-1.7-.442-2.095-1.5a10.081,10.081,0,0,1-.4-3.473V263.4a8.773,8.773,0,0,0-.677-4.162,4.529,4.529,0,0,0-3.938-1.982,2.931,2.931,0,0,0-2.245,1.258A2.487,2.487,0,0,1,869,259.691Z" transform="translate(-542.98 -134.116)"/><path class="f" d="M885.3,381.92l3.6,20.549S891.731,402.445,885.3,381.92Z" transform="translate(-557.931 -206.209)"/><path class="f" d="M914.347,374.85s-4.707,10.724-2.87,21.817l.876.087S910.789,391.621,914.347,374.85Z" transform="translate(-573.883 -202.573)"/><path class="f" d="M929,499.216s5.782-2.662,6.2,3.511C935.215,502.727,934.126,498.5,929,499.216Z" transform="translate(-584.726 -266.243)"/><path class="f" d="M862.765,426.81s-1.149,11.171.918,15.654a18.956,18.956,0,0,1-10.1,1.918l-.7-17.572Z" transform="translate(-537.459 -229.297)"/><path class="f" d="M875.767,440.681l-.555.432-3.561-11.171,3.331-4.153h.171C875.1,426.344,874.171,435.946,875.767,440.681Z" transform="translate(-549.52 -228.772)"/><path class="g" d="M856.575,425.83s-1.149,11.171.918,15.649a18.9,18.9,0,0,1-10.1,1.918L843.37,425.83Z" transform="translate(-531.355 -228.793)"/><path class="l" d="M802,795.762a3.288,3.288,0,0,1-2.231,3.167c-3.118.646-10.628,2.3-12.524,3.555-2.413,1.6-11.941.486-12.4-1.117a3.427,3.427,0,0,1,.164-1.943,4.838,4.838,0,0,1,1.54-2.3,3.632,3.632,0,0,1,.7-.428c1.795-.83,5.185-2.6,6.1-4.454,0,0,4.228-5.143,5.433-7.921a2.83,2.83,0,0,1,2.207-1.914c1.006-.063,2.126.641,2.587,3.706,0,0,5.506,4.371,6.983.539,0,0,.23,5.886,1.145,7.5h0A2.787,2.787,0,0,1,802,795.762Z" transform="translate(-488.184 -412.185)"/><path class="f" d="M802,808.2a3.288,3.288,0,0,1-2.231,3.167c-3.118.646-10.628,2.3-12.524,3.555-2.413,1.6-11.941.486-12.4-1.117a3.427,3.427,0,0,1,.164-1.943,4.839,4.839,0,0,1,1.54-2.3c1.554,1.457,5,2.836,12.591,1.19,7.238-1.574,10.824-3.113,12.57-4.162h0A2.792,2.792,0,0,1,802,808.2Z" transform="translate(-488.184 -424.625)"/><g class="n" transform="translate(321.323 115.186)"><path d="M942.42,268.226v-.078a19.606,19.606,0,0,0,.349-3.628c-.073.98-.19,1.954-.349,2.914A2.444,2.444,0,0,0,942.42,268.226Z" transform="translate(-915.117 -261.013)"/><path d="M884.887,279.462a6.187,6.187,0,0,1,.283,1.826,7.478,7.478,0,0,0-.283-2.545c-.321-.971-1.079-1.7-1.819-1.457-.985.321-1.4,2.1-2.371,2.526-.81.359-1.7-.442-2.095-1.5a10.026,10.026,0,0,1-.4-3.478v-4a8.772,8.772,0,0,0-.677-4.162,4.538,4.538,0,0,0-3.938-1.986,2.936,2.936,0,0,0-2.249,1.263,2.484,2.484,0,0,1-2.367,1.17,2.416,2.416,0,0,1-1.648-1.982c-.094-.515-.07-1.068-.178-1.578-.269-1.253-1.232-1.909-1.878-2.861a6.482,6.482,0,0,1-.967-3.4,6.915,6.915,0,0,0,.967,4.094c.646.971,1.61,1.608,1.878,2.861.108.486.084,1.064.178,1.578a2.416,2.416,0,0,0,1.648,1.982,2.484,2.484,0,0,0,2.367-1.171,2.936,2.936,0,0,1,2.249-1.263,4.53,4.53,0,0,1,3.938,1.986,8.826,8.826,0,0,1,.677,4.162v4a9.971,9.971,0,0,0,.4,3.473c.4,1.044,1.274,1.86,2.095,1.5.964-.427,1.4-2.205,2.371-2.526C883.808,277.757,884.566,278.524,884.887,279.462Z" transform="translate(-864.285 -257.3)"/><path d="M935.557,292.785a6.852,6.852,0,0,1-.978,2.2l-3.792,6.338c-1.6,2.666-3.282,5.755-3.142,9.16.115-3.123,1.679-5.964,3.142-8.441l3.792-6.338a6.852,6.852,0,0,0,.978-2.2,8.364,8.364,0,0,0,.1-1.753,6.318,6.318,0,0,1-.1,1.035Z" transform="translate(-905.517 -275.018)"/><path d="M921.765,327.2a5.073,5.073,0,0,1-.115-.855,5.923,5.923,0,0,0,.115,1.574c.258,1.156,1.2,2.113,2,1.617q-.034-.348-.042-.7C922.931,329.284,922.01,328.341,921.765,327.2Z" transform="translate(-901.614 -292.814)"/></g><path class="f" d="M812.69,789.36s1.2,2.914,5.552.35" transform="translate(-513.06 -415.763)"/><path class="f" d="M918,790.82s3.75,6.144,8.478,2.016" transform="translate(-577.766 -416.514)"/><path class="f" d="M944.157,641.23s-2.65,2.3-2.734,3.618,1.369-.971,1.369-.971Z" transform="translate(-585.192 -339.577)"/><path class="f" d="M943.391,677.59a4.8,4.8,0,0,1-3.265,1.773c-1.983.121-1.816,3.715-.52,2.637A38.3,38.3,0,0,0,943.391,677.59Z" transform="translate(-590.78 -358.278)"/><path class="f" d="M949.4,682.34s-1.271,8.689-2.3,7.013" transform="translate(-588.889 -360.721)"/><path class="u" d="M243.35,514.758s7.978,3.045,11.819-1.005S260.675,511,260.675,511s9.158-.7,9.913-3.715-3.513-13.949-3.513-13.949c-.3-.971-.747-2.2-.946-2.2l.042-4.614h0l1.327-19.306c3.062-10.923.056-25.037.056-25.037l-.548-3.5a12.022,12.022,0,0,1,.52-5.828l5.562-15.542a27.932,27.932,0,0,1,1.048-2.982c.349-.889.814-1.986,1.4-3.3.171-.379.349-.772.545-1.185.674-1.457,1.491-3.108,2.479-5.012,2.461-4.745,3.757-10.685,4.427-15.056l.3,1.37h.066l.08.024h.133l.143.034h.052l1.711,30.287c.1,11.812,3.223,18.349,3.223,18.349l-.429,26.076c.587,6.28-.7,14.653-1.288,17.995l-1.348,4.23a5.3,5.3,0,0,0-1.987,3.847c-.265,3.123-2.629,9.854-2.629,9.854-.915,1.612-2.9,5.969-2.9,5.969s-.936,4.206-.356,5.78S283.175,515,283.175,515c5.534,1.7,9.776-2.428,9.508-5.275s.862-3.57.862-3.57a3.118,3.118,0,0,0,1.987-3.045,25.519,25.519,0,0,0-1.665-12.4l-.349,1.122a23.326,23.326,0,0,1,.663-6.62l-.2.194-.063.053h-.021c.349-4.259,3.565-12.142,3.565-12.142,5.908-14.415,3.76-33.949,3.76-33.949l-.915-6.09-.052-2.3a106.067,106.067,0,0,1,.89-16.367c.318-2.39.646-5.274.9-8.456a99.059,99.059,0,0,1,3.031-16.6l.234-.058h.028c.321-.078.646-.155.974-.243h.063s.189-1.418.349-3.832c.094-1.54.171-3.492.171-5.736a88.014,88.014,0,0,0-2.2-19.966l.178-.355s.422-.8,1.194-2.176h0c1.418-2.506,3.624-6.314,6.344-10.607a23.676,23.676,0,0,0,3.439-15.542s-3.526-17.975-5.1-28.767a40.162,40.162,0,0,0-3.869-12.8,34.95,34.95,0,0,0,.489-5.187,25.741,25.741,0,0,0-1.009-9.4c-1.033-2.87-3.233-5.139-5.531-4.755a1.54,1.54,0,0,1-.992,0,1.8,1.8,0,0,1-.653-.792c-1.344-2.579-1.432-6.047-1.013-9.174s1.278-6.12,1.662-9.257.21-6.62-1.226-9.107c-1.686-2.914-4.626-3.735-6.819-5.925-1.54-1.54-2.7-3.749-4.319-5.114s-3.142-.845-4.906-.33c-2.964.869-5.782,1.268-8.586,3.04a25.029,25.029,0,0,0-7.482,7.572,10.94,10.94,0,0,0-1.669,3.662c-.7,3.21.667,6.63.381,9.952a24.318,24.318,0,0,1-1.994,6.508c-.793,2.1-1.4,4.6-.775,6.8.978,3.439,4.165,4.167,6.484,6a2.358,2.358,0,0,1,.768.928c.573,1.389-.6,2.832-1.334,4.065a7.306,7.306,0,0,0-.873,2.467,8.67,8.67,0,0,0-3.8,6.372c-.786,4.891.422,11.064,1.487,15.144-1.163,9.087.349,12.671,1.463,14.046a9.127,9.127,0,0,1,1.941,5.313v.17c.073,1.651.2,3.3.367,4.939h0c-.038-.384-.077-.792-.1-.971-.911,2.346-2.647,8.339-3.624,18.422q-.305,3.241-.883,6.416a48.366,48.366,0,0,0-.74,11.472l.175,3.269a.618.618,0,0,1-.475-.219l1.225,3.123v5.27a26.267,26.267,0,0,1-.929,6.95c-.087.321-.182.641-.283.971a7.581,7.581,0,0,0-.412,2.861c-2.636,5.619-8.68,37.111-8.68,37.111-3.279,10.326.269,17,.269,17s1.718,28.747,2.039,30.234,1.033,19.01,1.033,19.01h0v1.394a1.879,1.879,0,0,0-.6-.238c-2.874-.223-3.652,6.091-3.652,6.091l-5.88,7.81s-2.685-.631-6.634,3.492S243.35,514.758,243.35,514.758Zm58.711-166.146-.017-.087-.161.131h0l-.066.053-.031.029h0l-2.709-13.3a30.479,30.479,0,0,1-.2-10.942l2.095-12.764h0V308.66l6.658,24.682C308.056,336.669,304.1,344.727,302.061,348.612Z" transform="translate(-158.067 -128.019)"/><path class="v" d="M387.071,557a100.719,100.719,0,0,0-3.373,17.824c-.248,3.147-.569,5.993-.883,8.354a105.63,105.63,0,0,0-.859,16.159l.052,2.268.873,6.008s2.095,19.3-3.691,33.512c0,0-3.429,8.514-3.533,12.545l-2.322,1.248-4.693-1.831s2.266-11.3,1.529-19.223l.422-25.741s-3.048-6.44-3.153-18.1l-1.791-31.987Z" transform="translate(-236.931 -296.256)"/><path class="v" d="M309.223,547.62s-.576,12.472-5.01,21.069-5.377,12.327-5.377,12.327l-5.461,15.357a11.939,11.939,0,0,0-.513,5.746l.538,3.458s2.954,13.939-.052,24.726l-1.425,20.836h-8.331s-.7-17.315-1-18.781-2-29.86-2-29.86-3.492-6.605-.265-16.8c0,0,7.28-38.15,9.228-37.49S309.223,547.62,309.223,547.62Z" transform="translate(-183.385 -291.432)"/><g class="n" transform="translate(108.631 256.188)"><path d="M315.157,605.6l-.534-3.458a11.865,11.865,0,0,1,.51-5.77L320.593,581s.946-3.74,5.377-12.327c4.256-8.257,4.958-20.088,5.007-21l.848-.058s-.576,12.472-5.01,21.069-5.377,12.327-5.377,12.327l-5.461,15.357a11.939,11.939,0,0,0-.513,5.746l.538,3.458s2.954,13.939-.052,24.726l-1.424,20.836h-.845L315.1,630.3C318.111,619.515,315.157,605.6,315.157,605.6Z" transform="translate(-313.68 -547.62)"/></g><path class="f" d="M388.24,653.684c.1-4.031,3.533-12.545,3.533-12.545,5.8-14.23,3.691-33.512,3.691-33.512l-.894-6.013-.052-2.268a105.636,105.636,0,0,1,.859-16.159c.311-2.36.632-5.207.88-8.354a100.776,100.776,0,0,1,3.362-17.786l.866-.049a100.717,100.717,0,0,0-3.373,17.824c-.248,3.147-.569,5.993-.883,8.354a105.626,105.626,0,0,0-.859,16.159l.052,2.268.873,6.008s2.095,19.3-3.691,33.512c0,0-3.429,8.514-3.533,12.545l-2.322,1.248-.489-.189Z" transform="translate(-249.848 -296.256)"/><path class="w" d="M374.285,753.769a3.121,3.121,0,0,0,3.841-.66,23.715,23.715,0,0,0-.314,9.684c.95,5.284-8.862-4.255-8.862-4.255l2.095-6.659A3.153,3.153,0,0,0,374.285,753.769Z" transform="translate(-239.342 -396.487)"/><path class="f" d="M375.028,754.05a3.106,3.106,0,0,0,3.118-.971,23.715,23.715,0,0,0-.314,9.684c.95,5.284-8.862-4.255-8.862-4.255l2.095-6.659a3.131,3.131,0,0,0,2.392,1.875C374,753.812,374.515,753.914,375.028,754.05Z" transform="translate(-239.354 -396.471)"/><path class="v" d="M289.32,446.429h4.1V414.077l-3.076-.767Z" transform="translate(-178.44 -212.572)"/><path class="s" d="M289.32,446.429h4.1V414.077l-3.076-.767Z" transform="translate(-178.44 -212.572)"/><path class="x" d="M358.629,760.3s2.584-.223,3.743,3.006l1.425,1.54.7-2.273a25.392,25.392,0,0,1,1.613,12.254,3.079,3.079,0,0,1-1.952,3.006s-1.107.733-.845,3.521-3.9,6.9-9.333,5.206c0,0-4.749.151-5.328-1.394s.37-5.648.37-5.648,1.952-4.3,2.846-5.891c0,0,2.322-6.654,2.587-9.714S357.257,758.605,358.629,760.3Z" transform="translate(-226.466 -400.516)"/><path class="w" d="M299.956,761.408l.042-4.56s-4.717,1.889-8.537-.248c0,0,.321,4.585-.21,5.211s1.767,6.528,1.767,6.528l2.566,3.74L300,769.844l1.2-5.245S300.27,761.408,299.956,761.408Z" transform="translate(-191.389 -398.914)"/><path class="f" d="M299.956,761.408l.042-4.56s-4.717,1.889-8.537-.248c0,0,.321,4.585-.21,5.211s1.767,6.528,1.767,6.528l2.566,3.74L300,769.844l1.2-5.245S300.27,761.408,299.956,761.408Z" transform="translate(-191.389 -398.914)"/><path class="x" d="M258.651,763.094s2.507.4,2.189,4.857.133,0,.133,0a9.754,9.754,0,0,1,3.614,3.594c.95,2.093,2.664-1.87,2.793-3.006a2.15,2.15,0,0,1,1.2-1.608s4.19,10.806,3.45,13.779-9.734,3.657-9.734,3.657-1.638-1.282-5.408,2.715-11.6.971-11.6.971-6.383-3.706-2.5-7.771,6.512-3.448,6.512-3.448l5.775-7.742S255.83,762.87,258.651,763.094Z" transform="translate(-160.389 -402.251)"/><path class="y" d="M330.045,236.165c1.6,1.345,2.73,3.531,4.242,5.051,2.151,2.161,5.038,2.967,6.693,5.852,1.4,2.458,1.578,5.891,1.2,8.99s-1.222,6.056-1.631,9.145-.325,6.513,1,9.058a1.769,1.769,0,0,0,.639.782,1.525,1.525,0,0,0,.974,0c2.256-.379,4.42,1.865,5.433,4.7a33.738,33.738,0,0,1-.126,16.843c-1.4,3.963-4.3,6.411-7.168,8.286a48.04,48.04,0,0,1-5.723,3.215,6.465,6.465,0,0,1-4.148.869c-2.385-.573-4.075-3.589-6.337-4.769-1.854-.971-3.911-.622-5.883-.379-1.683.2-3.607.2-4.766-1.51-1.487-2.2-.817-5.736-.056-8.563-1.644-.145-3.09-1.56-3.744-3.662a8.064,8.064,0,0,1,.644-6.3c.719-1.219,1.868-2.642,1.306-4.017a2.28,2.28,0,0,0-.754-.913c-2.273-1.807-5.4-2.53-6.362-5.92-.615-2.181-.021-4.648.758-6.722a24.637,24.637,0,0,0,1.959-6.426c.279-3.283-1.047-6.659-.374-9.825a10.938,10.938,0,0,1,1.638-3.623,24.683,24.683,0,0,1,7.332-7.475c2.755-1.753,5.517-2.147,8.429-3C326.962,235.33,328.408,234.786,330.045,236.165Z" transform="translate(-199.121 -130.795)"/><path class="v" d="M316.944,337.754s-6.679-.486-7.943,7.436,2.741,19.267,2.741,19.267Z" transform="translate(-202.268 -183.49)"/><path class="s" d="M316.944,337.754s-6.679-.486-7.943,7.436,2.741,19.267,2.741,19.267Z" transform="translate(-202.268 -183.49)"/><path class="v" d="M320,340.991l2.531,2.788,11.812.733,7.374-7.042,7.5-17.9c-4.585-1.627-6.438-6.032-7.13-10.151a30.763,30.763,0,0,1-.147-8.48s-12.025-8.66-10.548,4.857a25.459,25.459,0,0,1,.112,5.022c-.7,7.917-6.222,6.426-6.222,6.426l-2.119,4.546-2.427,11.171Z" transform="translate(-208.631 -163.153)"/><path class="f" d="M352.426,305.771a25.469,25.469,0,0,1,.112,5.022c3.453,2.194,7.483,1.669,10.583-1.379a30.762,30.762,0,0,1-.147-8.48S350.949,292.274,352.426,305.771Z" transform="translate(-229.033 -163.149)"/><ellipse class="v" cx="10.653" cy="14.818" rx="10.653" ry="14.818" transform="translate(116.982 118.76)"/><path class="g" d="M323.534,358.035a5.831,5.831,0,0,1,.768.087,10.506,10.506,0,0,0,10.555-4.891c3.719-6.178,8.67-13.808,8.872-14.119l5.038,2.118s-3.987-1.972-6.634,8.344c-1.193,4.444-.136,9.45,2.594,12.293a7.041,7.041,0,0,0,3.3,1.943.033.033,0,0,1,0,.024v4.527h0l-2.06,12.628a30.208,30.208,0,0,0,.2,10.806l3.142,15.449c-.475.457-19.972,18.9-33,6.163h0c.049-.554,1.658-18.684.541-27.557q-.43-3.4-.583-6.858v-.17a9.063,9.063,0,0,0-1.91-5.245c-1.173-1.457-2.762-5.343-1.191-15.61a48.746,48.746,0,0,1,1.746-7.4l4.368-13.73h0l4.026.112v.039c-.349.6-5.017,8.713-5.524,13.939C317.284,355.9,316.673,357.423,323.534,358.035Z" transform="translate(-203.812 -183.023)"/><path class="v" d="M389.636,348.055s3.939,4.7,5.485,15.357,4.993,28.369,4.993,28.369a23.585,23.585,0,0,1-3.376,15.357c-4.773,7.63-7.947,13.6-7.947,13.6l-3.142,6.44a4.259,4.259,0,0,1-2.263,2.224,5.7,5.7,0,0,1-5.538-.549,5.443,5.443,0,0,1-1.4-5.668l.7-2.249s-6.47,5.673-7.032,2.54,7.524-6.26,7.524-6.26,6.679-1.564,8.031-5.964c0,0,7.172-12.817,6.61-17.217l-6.927-25.824s-8.663-1.593-5.709-15.129S389.636,348.055,389.636,348.055Z" transform="translate(-239.372 -187.433)"/><path class="q" d="M307.329,512.917s15.824,4.4,19.553,3.813l.4,1.86s6.005,1.87,19.584-1.127q1.33-.291,2.762-.656l.318-.078s.185-1.4.332-3.783a90.029,90.029,0,0,0-2.3-26.635l-2.283-9.782s-14.113,11.768-23.456,10.685c-.834-.1-1.662-.189-2.5-.228-1.917-.1-4.888,0-6.819-2.152l-4.05.971v16.027a25.967,25.967,0,0,1-.915,6.858c-.087.321-.178.636-.279.971A6.893,6.893,0,0,0,307.329,512.917Z" transform="translate(-200.413 -254.869)"/><path class="f" d="M364.58,552.166v4.988s6.913,2.152,22.664-1.86c0,0,.185-1.4.332-3.783C382.743,552.588,369.416,555.182,364.58,552.166Z" transform="translate(-236.223 -293.432)"/><path class="f" d="M307.333,547s15.824,4.4,19.553,3.813l.4,1.86v-4.988c-1.8,1.039-14.665-3.273-19.326-4.891-.087.32-.178.636-.279.971a6.893,6.893,0,0,0-.349,3.235Z" transform="translate(-201.058 -288.947)"/><path class="q" d="M417.31,536.688l1.173,10.122q1.33-.291,2.762-.656c-.367-2.958-1.166-9.714-.946-10.836l-1.477-1.758Z" transform="translate(-269.323 -284.2)"/><path class="f" d="M417.78,536.238l1.173,10.126q1.33-.3,2.762-.656c-.367-2.958-1.166-9.714-.946-10.836l-1.477-1.763Z" transform="translate(-269.613 -283.969)"/><g class="z" transform="translate(112.216 221.647)"><path d="M330.658,496c-.831-.1-1.662-.189-2.5-.228-1.865-.1-4.71,0-6.651-1.986l.677-.165c1.941,2.142,4.888,2.05,6.819,2.152.835.039,1.662.131,2.5.228.272.034.552.053.834.063a11.284,11.284,0,0,1-1.679-.063Z" transform="translate(-321.51 -485.305)"/><path d="M393.277,517.448q1.33-.291,2.762-.651l.321-.083s.185-1.4.328-3.784a89.79,89.79,0,0,0-2.3-26.635l-2.151-9.228c.457-.359.7-.568.7-.568l2.283,9.782a90.029,90.029,0,0,1,2.3,26.635c-.147,2.385-.332,3.783-.332,3.783l-.318.083q-1.428.359-2.762.651a63.2,63.2,0,0,1-14.228,1.7A65.329,65.329,0,0,0,393.277,517.448Z" transform="translate(-359.5 -476.5)"/><path d="M360.154,559.3v.053H359.7Q359.958,559.329,360.154,559.3Z" transform="translate(-346.366 -519.086)"/></g><ellipse class="w" cx="0.597" cy="1.71" rx="0.597" ry="1.71" transform="translate(149.398 250.958)"/><path class="v" d="M310.7,449.829c.964-9.956,2.664-15.872,3.561-18.189.035.316.126,1.341.168,1.656.182,1.457.021,3.293.077,5.143l-.894,22.516,1.2,7.042c1.124,5.576-3.041,1.171-3.041,1.171-.862,2.642-2.444,2.351-2.444,2.351l-.216-4.041a48.117,48.117,0,0,1,.726-11.331Q310.4,453.027,310.7,449.829Z" transform="translate(-202.498 -231.781)"/><path class="s" d="M310.7,449.829c.964-9.956,2.664-15.872,3.561-18.189.035.316.126,1.341.168,1.656.182,1.457.021,3.293.077,5.143l-.894,22.516,1.2,7.042c1.124,5.576-3.041,1.171-3.041,1.171-.862,2.642-2.444,2.351-2.444,2.351l-.216-4.041a48.117,48.117,0,0,1,.726-11.331Q310.4,453.027,310.7,449.829Z" transform="translate(-202.498 -231.781)"/><path class="v" d="M391.534,483.536c-.758,1.365-1.173,2.147-1.173,2.147l-3.142,6.435a4.24,4.24,0,0,1-2.263,2.224,5.685,5.685,0,0,1-5.538-.549,5.43,5.43,0,0,1-1.4-5.663l.7-2.253s-6.47,5.673-7.032,2.545,7.524-6.26,7.524-6.26,6.679-1.564,8.031-5.969c0,0,.583-1.039,1.4-2.632" transform="translate(-240.678 -253.341)"/><path class="q" d="M396.463,508.77s-7.65-1.034-10.073-7.12l-1.11,5.027s8.031,7.713,9.864,6.712Z" transform="translate(-249.342 -267.788)"/><path class="f" d="M395.69,508.665s-7.647-1.034-10.073-7.125l-1.107,5.012s8.031,7.713,9.86,6.712Z" transform="translate(-248.867 -267.732)"/><path class="q" d="M311.605,510.46s-2.678,1.321-3.205.588l1.2,3.084,2.277-2.428Z" transform="translate(-202.164 -272.319)"/><path class="f" d="M311.605,510.46s-2.678,1.321-3.205.588l1.2,3.084,2.277-2.428Z" transform="translate(-202.164 -272.319)"/><path class="f" d="M331.37,525.905V519.47l-1.1,6.591Z" transform="translate(-203.78 -267.172)"/><path class="f" d="M350.6,264.3a3.942,3.942,0,0,1-2.87,2.1,16.287,16.287,0,0,1-3.334,0,6.637,6.637,0,0,0-5.031,1.763,16.777,16.777,0,0,0-2.308,3.4c-2.158,3.667-5.154,7.1-8.554,6.717a1.975,1.975,0,0,1-1.589-.933,4.626,4.626,0,0,1-.4-2.011,63.823,63.823,0,0,1,.206-9.063,25.361,25.361,0,0,1,.985-5.406,19.757,19.757,0,0,1,2.367-4.7,16.6,16.6,0,0,1,4.131-4.6,5.6,5.6,0,0,1,5.168-.928c2.036.772,3.621,2.987,5.562,4.128C347.146,256.065,353.033,259.528,350.6,264.3Z" transform="translate(-212.715 -138.548)"/><path class="y" d="M350.6,263.087a3.941,3.941,0,0,1-2.87,2.1,16.274,16.274,0,0,1-3.334,0,6.614,6.614,0,0,0-5.031,1.758,16.774,16.774,0,0,0-2.308,3.4c-2.158,3.667-5.154,7.1-8.554,6.717a1.963,1.963,0,0,1-1.589-.933,4.605,4.605,0,0,1-.405-2.011,63.815,63.815,0,0,1,.206-9.063,25.36,25.36,0,0,1,.985-5.406,19.614,19.614,0,0,1,2.367-4.7,16.553,16.553,0,0,1,4.13-4.609,5.6,5.6,0,0,1,5.168-.928c2.036.772,3.621,2.987,5.562,4.128C347.146,254.85,353.033,258.3,350.6,263.087Z" transform="translate(-212.715 -137.921)"/><path class="v" d="M291.714,473.47l-.028,1.773-.286-1.7Z" transform="translate(-179.817 -243.513)"/><path class="s" d="M291.714,473.47l-.028,1.773-.286-1.7Z" transform="translate(-179.817 -243.513)"/><g class="z" transform="translate(139.85 158.397)"><path d="M397.068,352.594c-2.957,13.536,5.663,15.124,5.663,15.124l6.927,25.824c.562,4.4-6.613,17.217-6.613,17.217a7.394,7.394,0,0,1-3.108,3.813,6.468,6.468,0,0,0,1.844-2.817s7.172-12.812,6.609-17.212l-6.927-25.828s-8.617-1.588-5.663-15.124c.988-4.522,2.444-6.581,3.918-7.319C398.7,347.406,397.77,349.374,397.068,352.594Z" transform="translate(-395.184 -346.27)"/></g><g class="n" transform="translate(108.708 153.812)"><path d="M401,384.61a9.053,9.053,0,0,0,1.4,1.841,7,7,0,0,0,3.3,1.943v.51a7.072,7.072,0,0,1-2.989-1.841A9.4,9.4,0,0,1,401,384.61Z" transform="translate(-370.127 -361.404)"/><path d="M321.956,419.969v.17q.163,3.462.6,6.882c1.047,8.373-.325,25-.52,27.3-.112-.1-.223-.2-.349-.311.052-.554,1.662-18.684.545-27.553q-.43-3.4-.583-6.858v-.17a9.53,9.53,0,0,0-.939-3.716A9.344,9.344,0,0,1,321.956,419.969Z" transform="translate(-317.87 -377.4)"/><path d="M323.091,337.5l-3.415-.092a.013.013,0,0,0-.018,0l-4.364,13.725a48.912,48.912,0,0,0-1.746,7.4c-1.271,8.305-.471,12.443.5,14.488-1.093-1.792-2.221-5.877-.814-15.056a48.457,48.457,0,0,1,1.728-7.4l4.4-13.725h0l4.026.112v.034C323.353,337.034,323.245,337.219,323.091,337.5Z" transform="translate(-312.577 -336.83)"/><path d="M416.39,345.87l.059.024Z" transform="translate(-380.143 -341.48)"/><path d="M357.9,343.57l-3.422-1.433h-.017c-.2.311-5.15,7.941-8.869,14.119a10.508,10.508,0,0,1-10.555,4.9c-.255-.039-.513-.068-.768-.092-3.816-.34-5.318-.971-5.82-2.312.716.971,2.29,1.457,5.5,1.729a5.84,5.84,0,0,1,.768.087,10.515,10.515,0,0,0,10.555-4.891c3.719-6.183,8.67-13.813,8.872-14.124h0l4.979,2.1A2.263,2.263,0,0,0,357.9,343.57Z" transform="translate(-322.908 -339.258)"/></g><path class="f" d="M286.051,776.524s-4.818,1.831-5.751-1.044" transform="translate(-184.784 -408.625)"/><path class="f" d="M371.558,773.638s-5.587,2.006-6.878-1.1" transform="translate(-236.778 -407.112)"/><path class="aa" d="M544.7,751.419c.08-.971.2-1.943.321-2.914a27.787,27.787,0,0,0-.7-9.85h0c-.129-.51-.223-.8-.223-.8-2.224-.845-10.991,8.616-14.186,12.181-1.107,0-2.308.068-3.621.19a13.55,13.55,0,0,1-1.718.063h-2.095c-2.964-3.322-12.14-13.312-14.424-12.448,0,0-.094.286-.223.8h0a27.287,27.287,0,0,0-.716,9.85c.126.971.241,1.943.321,2.914.171,2.132.814,6.227,3.142,8.99a75.772,75.772,0,0,0,3.806,15.721,14.668,14.668,0,0,0,.489,2.22c-.594,3.186-1.278,7.343-1.082,8.742,0,0-3.1-1.044-3.415,4.148v.16c-1.121.714-2.521,2.351-.946,5.78a1.865,1.865,0,0,0,.81.918c.279.136.552.136.524-.408l1.938,3.036s3.513.563,3.554-2.273l.206.044c.471.1.964.18,1.47.253l.244,1.122s-2.636-.078-1.917,2.181c0,0,.663.855.89.544,0,0-.349,1.481,1.026,1.481,0,0,1.477,1.088,2.053.311a16.459,16.459,0,0,0,1.882-2.428c.031-.131.045-1.282.052-2.875h.227a84.525,84.525,0,0,0,8.91-.248h.23c0,1.724.017,3,.049,3.133a17.882,17.882,0,0,0,1.885,2.428c.573.792,2.05-.311,2.05-.311,1.369,0,1.027-1.481,1.027-1.481.23.311.894-.544.894-.544.719-2.258-1.92-2.181-1.92-2.181l.314-1.457,1.456-.17.23-.029c-.14,3.084,3.551,2.492,3.551,2.492l1.941-3.035c-.031.544.241.544.52.408a1.886,1.886,0,0,0,.786-.928c2.378-5.173-2.015-6.27-2.015-6.27a1.605,1.605,0,0,0-.416-.092,1.375,1.375,0,0,1,.017-.267h0a14.8,14.8,0,0,0,.028-2.05,3.63,3.63,0,0,0-2.615-2.647c-.894-.155-.911-5.867-.821-9.825a15.6,15.6,0,0,0,.14-2.253,16.275,16.275,0,0,0-.349-3.609,56.279,56.279,0,0,0,3.3-9.714C543.891,757.631,544.534,753.551,544.7,751.419Z" transform="translate(-323.049 -389.241)"/><path class="g" d="M548.706,828.03h0c-.14,2.691-.513,7.008-.513,7.008s-1.554.262-3.956.563l-1.63.194c-1.25.141-2.654.277-4.138.393a79.754,79.754,0,0,1-8.589.243,39.068,39.068,0,0,1-4.068-.321c-.569-.078-1.121-.17-1.645-.277-3.254-.675-5.587-1.967-5.785-4.235a18.2,18.2,0,0,1-.073-2.914c.3-5.1,3.289-4.07,3.289-4.07-.192-1.408.531-5.784,1.117-8.951.37-2,.7-3.511.7-3.511L544.4,810.21h.07a.919.919,0,0,1,.745.444,1.782,1.782,0,0,1,.281,1.057c-.126,3.5-.3,11.52.726,11.7a3.568,3.568,0,0,1,2.524,2.6A15.125,15.125,0,0,1,548.706,828.03Z" transform="translate(-330.393 -426.487)"/><path class="g" d="M524.743,753.669s-7.915,13.254-11.728,9.582c-.091-.087-.178-.175-.262-.267-2.563-2.7-3.237-7.052-3.415-9.262-.077-.971-.189-1.909-.311-2.856a27.121,27.121,0,0,1,.7-9.67h0c.126-.486.213-.782.213-.782C512.575,739.395,524.743,753.669,524.743,753.669Z" transform="translate(-325.271 -390.563)"/><path class="g" d="M520.458,755.776s-2.493,2.429-6.009,6.421a13.539,13.539,0,0,1-1.746,1.671c-2.563-2.7-3.237-7.052-3.415-9.262-.077-.971-.189-1.909-.311-2.856a27.119,27.119,0,0,1,.7-9.67h0C514.606,742.556,520.458,755.776,520.458,755.776Z" transform="translate(-325.425 -391.446)"/><path class="ab" d="M520.458,755.776s-2.493,2.429-6.009,6.421a13.539,13.539,0,0,1-1.746,1.671c-2.563-2.7-3.237-7.052-3.415-9.262-.077-.971-.189-1.909-.311-2.856a27.119,27.119,0,0,1,.7-9.67h0C514.606,742.556,520.458,755.776,520.458,755.776Z" transform="translate(-325.425 -391.446)"/><path class="f" d="M522.863,759.849s-1.33,1.307-3.209,3.429a7.241,7.241,0,0,1-.922.889,8.443,8.443,0,0,1-1.823-4.939c-.038-.515-.1-1.02-.164-1.53a14.547,14.547,0,0,1,.388-5.158h0C519.741,752.793,522.863,759.849,522.863,759.849Z" transform="translate(-330.505 -396.826)"/><path class="g" d="M569.05,753.669s7.915,13.254,11.728,9.582c.087-.087.178-.175.262-.267,2.563-2.7,3.237-7.052,3.415-9.262.077-.971.189-1.909.307-2.856a27.041,27.041,0,0,0-.7-9.67h0c-.126-.486-.217-.782-.217-.782C581.218,739.395,569.05,753.669,569.05,753.669Z" transform="translate(-362.332 -390.563)"/><path class="g" d="M581.22,755.776s2.5,2.429,6.013,6.421a13.6,13.6,0,0,0,1.728,1.671c2.563-2.7,3.237-7.052,3.415-9.262.077-.971.189-1.909.307-2.856a27.037,27.037,0,0,0-.7-9.67h0C587.079,742.556,581.22,755.776,581.22,755.776Z" transform="translate(-370.038 -391.446)"/><path class="ab" d="M581.22,755.776s2.5,2.429,6.013,6.421a13.6,13.6,0,0,0,1.728,1.671c2.563-2.7,3.237-7.052,3.415-9.262.077-.971.189-1.909.307-2.856a27.037,27.037,0,0,0-.7-9.67h0C587.079,742.556,581.22,755.776,581.22,755.776Z" transform="translate(-370.038 -391.446)"/><path class="f" d="M589.05,759.865s1.323,1.3,3.188,3.4a6.831,6.831,0,0,0,.918.884,8.468,8.468,0,0,0,1.812-4.91c.039-.486.1-1.015.164-1.52a14.583,14.583,0,0,0-.367-5.129h0C592.154,752.852,589.05,759.865,589.05,759.865Z" transform="translate(-375.134 -396.852)"/><path class="f" d="M552.669,810.23a26.9,26.9,0,0,1-3.031,5.372c-3.142,3.885-16.711,2.341-17.591,2.142-.185-.044-.569-.806-1.047-2.045.37-2,.7-3.511.7-3.511Z" transform="translate(-338.635 -426.497)"/><path class="g" d="M533.84,765.268a13.521,13.521,0,0,1-1.658.058c-2.832-.068-12.371.107-13.429,5.464-1.247,6.314,4.326,23.22,5.2,23.424s14.441,1.734,17.594-2.142,7.255-16.027,7.035-17.13C548.585,774.943,552.5,763.471,533.84,765.268Z" transform="translate(-330.578 -403.274)"/><path class="f" d="M540.717,786.46s-6.983-1.5-10.258,8.062a15.619,15.619,0,0,0,.618,11.749c1.089,2.132,2.689,3.72,4.913,2.428C540.934,805.868,540.717,786.46,540.717,786.46Z" transform="translate(-338.261 -414.228)"/><path class="f" d="M540.087,785.2s-6.983-1.5-10.258,8.062a15.619,15.619,0,0,0,.618,11.749c1.089,2.132,2.688,3.72,4.913,2.428C540.3,804.608,540.087,785.2,540.087,785.2Z" transform="translate(-337.872 -413.58)"/><path class="g" d="M540.087,785.83s-6.983-1.5-10.258,8.062a15.619,15.619,0,0,0,.618,11.749c1.089,2.132,2.688,3.72,4.913,2.428C540.3,805.238,540.087,785.83,540.087,785.83Z" transform="translate(-337.872 -413.904)"/><path class="ab" d="M540.087,785.83s-6.983-1.5-10.258,8.062a15.619,15.619,0,0,0,.618,11.749c1.089,2.132,2.688,3.72,4.913,2.428C540.3,805.238,540.087,785.83,540.087,785.83Z" transform="translate(-337.872 -413.904)"/><path class="ac" d="M537.99,803.13s-.953,1.224-.587,1.53S537.99,803.13,537.99,803.13Z" transform="translate(-343.48 -422.846)"/><path class="ac" d="M541.652,806.35s-.52,1.6-.15,1.773.59-1.146.59-1.146Z" transform="translate(-345.976 -424.502)"/><path class="ac" d="M535.168,811.32s-.51,1.885,0,1.885S535.168,811.32,535.168,811.32Z" transform="translate(-342.022 -427.058)"/><path class="ad" d="M533.78,821.71s1.02,3.623,3.673,3.366" transform="translate(-341.166 -432.402)"/><path class="ad" d="M540.61,823.91s1.048,1.428,2.2.408" transform="translate(-345.443 -433.533)"/><path class="f" d="M564,786.46s6.983-1.5,10.258,8.062a15.618,15.618,0,0,1-.618,11.749c-1.086,2.132-2.688,3.72-4.913,2.428C563.766,805.868,564,786.46,564,786.46Z" transform="translate(-359.452 -414.228)"/><path class="f" d="M564.588,785.2s6.983-1.5,10.258,8.062a15.619,15.619,0,0,1-.618,11.749c-1.086,2.132-2.688,3.72-4.913,2.428C564.382,804.608,564.588,785.2,564.588,785.2Z" transform="translate(-359.816 -413.58)"/><path class="g" d="M564.588,785.83s6.983-1.5,10.258,8.062a15.619,15.619,0,0,1-.618,11.749c-1.086,2.132-2.688,3.72-4.913,2.428C564.382,805.238,564.588,785.83,564.588,785.83Z" transform="translate(-359.816 -413.904)"/><path class="ab" d="M564.588,785.83s6.983-1.5,10.258,8.062a15.619,15.619,0,0,1-.618,11.749c-1.086,2.132-2.688,3.72-4.913,2.428C564.382,805.238,564.588,785.83,564.588,785.83Z" transform="translate(-359.816 -413.904)"/><path class="ac" d="M586.16,803.13s.953,1.224.587,1.53S586.16,803.13,586.16,803.13Z" transform="translate(-373.615 -422.846)"/><path class="ac" d="M582.4,806.35s.52,1.6.15,1.773-.59-1.146-.59-1.146Z" transform="translate(-371.021 -424.502)"/><path class="ac" d="M589.4,811.32s.506,1.885,0,1.885S589.4,811.32,589.4,811.32Z" transform="translate(-375.486 -427.058)"/><path class="ad" d="M584.773,821.71s-1.02,3.623-3.673,3.366" transform="translate(-370.351 -432.402)"/><path class="ad" d="M580.7,823.91s-1.048,1.428-2.2.408" transform="translate(-368.817 -433.533)"/><path class="ac" d="M553.2,841.89a7.539,7.539,0,0,1,7.256,0Z" transform="translate(-352.98 -442.286)"/><path class="f" d="M524.168,854.655c-3.254-.675-5.587-1.967-5.785-4.235a18.2,18.2,0,0,1-.073-2.914,3.958,3.958,0,0,1,1.243-.631c.59-.228,1.32-.073,2.86.539s1.428,3.133,1.746,6.421A3.76,3.76,0,0,1,524.168,854.655Z" transform="translate(-331.512 -445.293)"/><path class="g" d="M516.4,847.528s-4.232,1.078-1.941,6.158a1.813,1.813,0,0,0,.782.9c.269.131.527.131.5-.4l1.871,2.982s3.736.612,3.408-2.676-.22-5.828-1.746-6.421S517,847.3,516.4,847.528Z" transform="translate(-328.681 -445.631)"/><path class="ad" d="M524.18,854.67s.9,2.851,2.144.457" transform="translate(-335.31 -449.354)"/><path class="ad" d="M518.28,857s.464,2.7,2.224.69" transform="translate(-331.667 -450.552)"/><path class="f" d="M597.07,846.849h0c-.14,2.691-.513,7.008-.513,7.008s-1.554.262-3.956.563a3.907,3.907,0,0,1,0-.563c.328-3.288.22-5.828,1.746-6.421C595.778,846.9,596.508,846.7,597.07,846.849Z" transform="translate(-377.399 -445.306)"/><path class="g" d="M597.877,847.528s4.235,1.078,1.945,6.158a1.829,1.829,0,0,1-.782.9c-.269.131-.531.131-.5-.4l-1.868,2.982s-3.739.612-3.408-2.676.22-5.828,1.746-6.421S597.291,847.3,597.877,847.528Z" transform="translate(-377.663 -445.631)"/><path class="ad" d="M599.644,854.67s-.9,2.851-2.144.457" transform="translate(-380.541 -449.354)"/><path class="ad" d="M605.388,857s-.468,2.7-2.228.69" transform="translate(-384.028 -450.552)"/><path class="f" d="M541.34,852.557a39.1,39.1,0,0,1-4.068-.321l-1.267-5.935a5.258,5.258,0,0,1-.115-1.083c.047-2.033,1.244-3.649,2.706-3.656s2.666,1.6,2.723,3.632C541.333,847.506,541.347,850.435,541.34,852.557Z" transform="translate(-342.389 -442.612)"/><path class="g" d="M534.708,846.167l1.494,7s-2.542-.078-1.847,2.142c0,0,.639.84.859.534,0,0-.332,1.457.988,1.457,0,0,1.425,1.073,1.976.306a18.338,18.338,0,0,0,1.819-2.37c.07-.3.049-6.158.024-10.2-.011-2.072-1.223-3.743-2.713-3.74h0a2.564,2.564,0,0,0-2.182,1.522,5.007,5.007,0,0,0-.42,3.344Z" transform="translate(-341.353 -442.477)"/><path class="ad" d="M540.075,869.47s-1.11,1.457-.524,2.317" transform="translate(-344.75 -456.966)"/><path class="ad" d="M538.087,867.56a1.986,1.986,0,0,0-1.027,1.792" transform="translate(-343.304 -455.983)"/><path class="f" d="M581.583,845.081a5.253,5.253,0,0,1-.112,1.083l-1.184,5.619c-1.25.141-2.654.277-4.138.393,0-2.1,0-4.891.024-7.12,0-2.084,1.223-3.768,2.722-3.762s2.709,1.7,2.7,3.786Z" transform="translate(-367.214 -442.475)"/><path class="g" d="M582.058,846.167l-1.494,7s2.545-.078,1.851,2.142c0,0-.639.84-.859.534,0,0,.328,1.457-.992,1.457,0,0-1.425,1.073-1.976.306a18.261,18.261,0,0,1-1.816-2.37c-.07-.3-.049-6.158-.024-10.2.012-2.072,1.223-3.743,2.713-3.74h0a2.566,2.566,0,0,1,2.179,1.524,5.008,5.008,0,0,1,.419,3.342Z" transform="translate(-367.551 -442.477)"/><path class="ad" d="M586.23,869.47s1.11,1.457.524,2.317" transform="translate(-373.657 -456.966)"/><path class="ad" d="M587.63,867.56a1.986,1.986,0,0,1,1.026,1.792" transform="translate(-374.505 -455.983)"/><path class="f" d="M550.871,782.769a5.114,5.114,0,0,0-5.335,5.343c-.164,5.571,8.079,3.21,8.079,3.21s3.464-.646,2.86-4.031S554.61,783.075,550.871,782.769Z" transform="translate(-348.082 -412.373)"/><path class="f" d="M550.871,781.509a5.114,5.114,0,0,0-5.335,5.342c-.164,5.571,8.079,3.21,8.079,3.21s3.464-.646,2.86-4.031S554.61,781.815,550.871,781.509Z" transform="translate(-348.082 -411.725)"/><path class="ac" d="M550.871,782.139a5.114,5.114,0,0,0-5.335,5.342c-.164,5.571,8.079,3.21,8.079,3.21s3.464-.646,2.86-4.031S554.61,782.445,550.871,782.139Z" transform="translate(-348.082 -412.049)"/><path class="f" d="M527.78,839.92a4.186,4.186,0,0,1,2.095,2.521" transform="translate(-337.533 -441.767)"/><path class="f" d="M596.124,837.4s-1.24.724-1.152,3.745" transform="translate(-379.026 -440.471)"/><path class="g" d="M1.143.005c.49-.076.786.641.661,1.6S1.18,3.4.69,3.478-.1,2.837.029,1.878.653.081,1.143.005Z" transform="translate(189.281 409.725) rotate(-29.887)"/><path class="g" d="M1.871.029C2.827-.1,3.54.2,3.464.688S2.553,1.674,1.6,1.8-.07,1.63.005,1.141.916.154,1.871.029Z" transform="translate(216.252 410.155) rotate(-60)"/><path class="ab" d="M1.143.005c.49-.076.786.641.661,1.6S1.18,3.4.69,3.478-.1,2.837.029,1.878.653.081,1.143.005Z" transform="translate(189.281 409.725) rotate(-29.887)"/><path class="ab" d="M1.871.029C2.827-.1,3.54.2,3.464.688S2.553,1.674,1.6,1.8-.07,1.63.005,1.141.916.154,1.871.029Z" transform="translate(216.252 410.155) rotate(-60)"/><ellipse class="a" cx="9.403" cy="2.21" rx="9.403" ry="2.21" transform="translate(57.836 345.568)"/><ellipse class="a" cx="9.403" cy="2.21" rx="9.403" ry="2.21" transform="translate(20.794 376.909)"/><ellipse class="g" cx="14.04" cy="3.303" rx="14.04" ry="3.303" transform="translate(6.367 347.778)"/><path class="g" d="M70.42,722.35a6.13,6.13,0,0,1-1.341-2.807c-.171-1.117.171-2.453.936-2.861.859-.456,1.777.369,2.472,1.2s1.494,1.792,2.406,1.617a6.4,6.4,0,0,1-1.131-4.769,2.36,2.36,0,0,1,.314-.971c.475-.709,1.341-.4,1.913.155,1.812,1.778,2.322,5.207,2.329,8.3a21.246,21.246,0,0,0,.035-3.4,4.218,4.218,0,0,1,.922-3.021,2.2,2.2,0,0,1,1.4-.486,2.393,2.393,0,0,1,2.283.9,4.115,4.115,0,0,1-.091,3.885,10.476,10.476,0,0,1-2.36,2.632,6.488,6.488,0,0,0-1.69,2.239,2.815,2.815,0,0,0-.126.4h-5.1A15.023,15.023,0,0,1,70.42,722.35Z" transform="translate(-55.82 -376.67)"/><ellipse class="a" cx="9.403" cy="2.21" rx="9.403" ry="2.21" transform="translate(388.574 364.053)"/><path class="ae" d="M1042.91,748.842s5.363-.228,6.983-1.831,8.247-3.512,8.649-.942,8.062,12.768,2,12.836-14.067-1.311-15.681-2.681S1042.91,748.842,1042.91,748.842Z" transform="translate(-651.246 -392.851)"/><path class="af" d="M1060.651,762.279c-6.054.068-14.068-1.311-15.681-2.681-1.229-1.039-1.718-4.774-1.882-6.5h-.178s.349,6.018,1.952,7.382,9.626,2.749,15.681,2.681c1.746,0,2.353-.884,2.318-2.166C1062.62,761.794,1061.953,762.279,1060.651,762.279Z" transform="translate(-651.246 -397.114)"/></g></svg>