<svg xmlns="http://www.w3.org/2000/svg" width="375.362" height="354.187" viewBox="0 0 375.362 354.187"><defs><style>.a{fill:#f2f2f2;}.b{fill:none;stroke:#3f3d56;stroke-miterlimit:10;stroke-width:2px;}.c{fill:#3f3d56;}.d{fill:red;}.e{fill:#32cd32;}.f{fill:#b21e60;}.g{fill:#ffb9b9;}.h{fill:#2f2e41;}</style></defs><g transform="translate(0 -0.229)"><rect class="a" width="115.475" height="126.472" transform="translate(123.169 13.326)"/><rect class="b" width="115.475" height="127.572" transform="translate(135.266 1.229)"/><rect class="c" width="24.307" height="0.985" transform="translate(211.287 116.471)"/><rect class="c" width="24.307" height="0.985" transform="translate(211.287 119.427)"/><rect class="c" width="24.307" height="0.985" transform="translate(211.287 122.383)"/><path class="d" d="M526,119.925v10.284a30.852,30.852,0,0,1,21.815,52.667l7.272,7.272A41.135,41.135,0,0,0,526,119.925Z" transform="translate(-332.944 -96.533)"/><path class="e" d="M526.73,261.866l-7.272-7.272a30.844,30.844,0,0,1-40.481,2.745l-6.224,8.19a41.135,41.135,0,0,0,53.977-3.663Z" transform="translate(-304.587 -168.251)"/><path class="e" d="M448.281,161.061a30.852,30.852,0,0,1,30.852-30.852V119.925a41.135,41.135,0,0,0-24.89,73.885l6.224-8.19a30.8,30.8,0,0,1-12.186-24.56Z" transform="translate(-286.076 -96.533)"/><rect class="a" width="45.81" height="56.094" transform="translate(108.188 150.02) rotate(17.605)"/><rect class="c" width="17.987" height="0.995" transform="translate(114.59 162.299) rotate(17.605)"/><rect class="c" width="26.177" height="0.995" transform="translate(114.035 164.05) rotate(17.605)"/><rect class="c" width="17.987" height="0.995" transform="translate(112.692 168.282) rotate(17.605)"/><rect class="c" width="17.987" height="0.995" transform="translate(110.469 175.285) rotate(17.605)"/><rect class="c" width="26.177" height="0.995" transform="translate(112.136 170.032) rotate(17.605)"/><rect class="c" width="26.177" height="0.995" transform="translate(111.581 171.783) rotate(17.605)"/><rect class="c" width="26.177" height="0.995" transform="translate(111.025 173.535) rotate(17.605)"/><rect class="f" width="9.415" height="2.602" transform="translate(109.127 179.517) rotate(17.605)"/><ellipse class="c" cx="61.236" cy="7.947" rx="61.236" ry="7.947" transform="translate(0 338.523)"/><path class="f" d="M179.806,340.451l-2.034,4.831,2.288,31.274s-1.271,1.78,0,3.051,1.017,1.78,1.017,1.78-2.034,0-1.017,1.526a4.877,4.877,0,0,1,1.017,2.288l-.509,1.526a4.759,4.759,0,0,1,1.017,2.288c0,1.017,6.611,32.292,6.611,32.292l6.357-12.459-3.56-49.581Z" transform="translate(-147.494 -213.974)"/><path class="g" d="M320.856,510.565s13.883-.561,18.309,4.336-17.39,1.354-18.624-.025S320.856,510.565,320.856,510.565Z" transform="translate(-223.272 -304.558)"/><path class="h" d="M170.238,774.515l-2.8,9.154s-4.068,8.9,1.526,10.171,10.933-3.56,10.933-3.56v-6.1l2.034-9.662Z" transform="translate(-141.232 -445.136)"/><path class="h" d="M272.633,774.515s-1.271,17.29,1.526,18.307,12.713,1.271,12.967,0,3.305-2.543,1.017-4.323-3.814-12.2-3.814-12.2Z" transform="translate(-197.859 -445.136)"/><path class="h" d="M192.081,423.4v7.628s-8.391,17.544-11.442,45.259-13.476,112.131-10.933,113.656,30,2.543,30.766.508S202,528.918,202,528.918l9.408-41.954s1.78,15,3.305,17.544-2.543,85.178,0,86.45,36.868,3.56,36.36-.509-11.95-114.419-11.95-114.419-5.848-52.124-7.628-52.633-18.053-1.017-20.6-.509S192.081,423.4,192.081,423.4Z" transform="translate(-142.988 -257.765)"/><circle class="g" cx="14.493" cy="14.493" r="14.493" transform="translate(53.924 73.589)"/><path class="g" d="M238.081,277.736s-7.374,11.442-5.594,14.493-18.816-3.051-18.816-3.051,12.459-15.256,12.2-17.036S238.081,277.736,238.081,277.736Z" transform="translate(-166.613 -177.449)"/><path class="f" d="M234.218,306.965s-13.476-4.323-15.256-6.1a24.454,24.454,0,0,1-3.051-3.814s-16.273-2.288-16.781-2.288-4.322,4.577-5.34,5.594-13.985,7.882-13.985,9.662-2.034,10.933-2.034,10.933,4.577,9.408,7.374,11.442,3.56,1.526,3.814,4.831,3.814,8.645,3.814,8.645,2.288,5.848,1.78,7.628-2.8,3.305,2.543,2.8,31.783,1.017,31.783-1.78-5.085-29.495-5.085-29.495Z" transform="translate(-147.494 -189.642)"/><path class="f" d="M280.08,321.378l4.831-.508s1.78,1.017,2.034,10.933.254,33.817,2.034,35.851,9.154,33.563,9.154,33.563,2.034.509,2.034,2.288,2.288,3.305,1.271,5.34,1.017,1.526-.254,2.8-7.374,3.814-7.628,2.288.763-1.78-.254-2.288-1.017-.763-1.271-2.543-2.543-3.56-2.288-4.323-11.188-22.884-11.188-23.647-.763-3.56-1.78-4.068-2.543-1.017-1.78-2.288-2.034-39.411-2.034-39.411Z" transform="translate(-198.187 -203.546)"/><path class="h" d="M232.921,231.422c-4.444-4.824-11.424-7.385-17.824-5.95s-11.79,7.118-12.291,13.658a21.863,21.863,0,0,1-.363,4c-.582,2.18-2.315,3.909-2.926,6.081-.409,1.455-.288,3.022-.721,4.47-.8,2.676-3.281,4.42-5.171,6.477a6.554,6.554,0,0,0-1.655,2.709,10.214,10.214,0,0,0-.125,2.756,19.192,19.192,0,0,1-5.145,13.389,33.023,33.023,0,0,1,6.4-3.722,9.952,9.952,0,0,0,2.731,10.277,8.689,8.689,0,0,0,10.413.674,15.894,15.894,0,0,0,4.122-5.195l4.266-7.279a11.206,11.206,0,0,1,2.81-3.571c.98-.715,2.17-1.095,3.156-1.8,2.488-1.78,3.156-5.264,2.693-8.288s-1.823-5.831-2.6-8.789c-.617-2.34-.81-5.021.577-7,1.842-2.631,5.628-2.967,8.131-4.979a11.3,11.3,0,0,0,2.038-2.628c.623-.876.782-.562,1.747-.6C235.836,236,233.9,232.489,232.921,231.422Z" transform="translate(-152.249 -152.531)"/><ellipse class="g" cx="1.169" cy="2.805" rx="1.169" ry="2.805" transform="translate(66.845 90.307)"/><circle class="a" cx="14.958" cy="14.958" r="14.958" transform="translate(181.838 265.484)"/><circle class="a" cx="14.958" cy="14.958" r="14.958" transform="translate(32.254 8.387)"/><circle class="a" cx="14.958" cy="14.958" r="14.958" transform="translate(345.445 43.445)"/><circle class="a" cx="14.958" cy="14.958" r="14.958" transform="translate(303.445 187.426)"/></g></svg>