<svg xmlns="http://www.w3.org/2000/svg" width="18.229" height="18.234" viewBox="0 0 18.229 18.234"><defs><style>.a{fill:#36c657;}</style></defs><path class="a" d="M17.956,20.687V9.644a1.773,1.773,0,0,0-1.769-1.769H5.144A1.773,1.773,0,0,0,3.375,9.644V20.691A1.773,1.773,0,0,0,5.144,22.46H16.191A1.779,1.779,0,0,0,17.956,20.687ZM7.9,15.828l1.876,2.651L12.542,14.5l3.645,5.3H5.144Z" transform="translate(-3.375 -4.225)"/><path class="a" d="M20.686,3.375H9.644A1.773,1.773,0,0,0,7.875,5.144v.22H18.7a1.773,1.773,0,0,1,1.769,1.769V17.955h.22a1.773,1.773,0,0,0,1.769-1.769V5.144A1.773,1.773,0,0,0,20.686,3.375Z" transform="translate(-4.226 -3.375)"/></svg>