<svg xmlns="http://www.w3.org/2000/svg" width="396" height="275.499" viewBox="0 0 396 275.499"><defs><style>.a{fill:#3f3d56;}.b{fill:#b21e60;}.c{fill:#fff;}.d{fill:#e6e6e6;}.e{fill:#ccc;}.f{fill:#2f2e41;}.g{fill:#ffb8b8;}</style></defs><g transform="translate(0)"><path class="a" d="M422.854,340.158a10.189,10.189,0,0,0-.208,14.337l64.409,66.662a10.166,10.166,0,0,0,14.484.14L698.079,225.61a10.167,10.167,0,0,0-1.625-15.723L619.17,159.55a10.107,10.107,0,0,0-12.651,1.245Z" transform="translate(-305.072 -155.124)"/><path class="b" d="M698.726,276.849a10.226,10.226,0,0,1-1.348,1.66L501.3,477.894a10.166,10.166,0,0,1-14.484-.14l-65.795-69.435a10.127,10.127,0,0,1-1.2-1.516c-2.523,3.882-1.218,8.221,2.127,11.682l64.409,66.663a10.166,10.166,0,0,0,14.484.14L697.38,289.6a10.17,10.17,0,0,0,1.347-12.75Z" transform="translate(-304.372 -219.114)"/><path class="c" d="M693.131,227.036l-8-5.1a7.62,7.62,0,0,1-10.968,10.005L622.41,196.359a7.616,7.616,0,0,1,2.013-13.54l-4.12-2.627a2.773,2.773,0,0,0-3.463.389l-174.111,171.1a2.773,2.773,0,0,0,.07,3.966l63.232,61.613a2.773,2.773,0,0,0,3.859-.054L693.6,231.337a2.773,2.773,0,0,0-.467-4.3Z" transform="translate(-316.975 -166.889)"/><path class="d" d="M379.147,181.807l53.412,50.359L559.6,106.649,495.127,64.683Z" transform="translate(-203.941 -34.793)"/><path class="a" d="M929.865,357.858a1.893,1.893,0,0,0,2.614,0l11.11-11.11a1.851,1.851,0,0,0,0-2.614,1.893,1.893,0,0,0-2.614,0l-11.11,11.11A1.851,1.851,0,0,0,929.865,357.858Z" transform="translate(-579.142 -255.025)"/><path class="a" d="M889.365,398.337a1.851,1.851,0,0,0,2.614,0l11.11-11.11a1.849,1.849,0,0,0-2.614-2.614l-11.11,11.11A1.851,1.851,0,0,0,889.365,398.337Z" transform="translate(-557.357 -276.788)"/><circle class="b" cx="12.477" cy="12.477" r="12.477" transform="translate(163.963 177.765)"/><path class="a" d="M334.4,582.915H69.113v-1.008H334.582Z" transform="translate(-37.175 -313.004)"/><rect class="d" width="131.89" height="26.04" transform="translate(135.585 82.427)"/><rect class="d" width="131.89" height="26.04" transform="translate(135.585 41.281)"/><rect class="d" width="131.89" height="26.04" transform="translate(135.585)"/><path class="c" d="M471.018,178.41H597.285V157.994H471.018Z" transform="translate(-332.621 -155.183)"/><path class="c" d="M471.018,267.939H597.285V247.523H471.018Z" transform="translate(-332.621 -203.34)"/><path class="c" d="M471.018,356.782H597.285V336.366H471.018Z" transform="translate(-332.621 -251.128)"/><circle class="b" cx="7.778" cy="7.778" r="7.778" transform="translate(141.672 5.073)"/><rect class="b" width="76.767" height="1.691" transform="translate(168.05 9.807)"/><rect class="b" width="76.767" height="1.691" transform="translate(168.05 14.203)"/><circle class="e" cx="7.778" cy="7.778" r="7.778" transform="translate(141.672 46.692)"/><rect class="e" width="76.767" height="1.691" transform="translate(168.05 51.426)"/><rect class="e" width="76.767" height="1.691" transform="translate(168.05 55.823)"/><circle class="e" cx="7.778" cy="7.778" r="7.778" transform="translate(141.672 87.838)"/><rect class="e" width="76.767" height="1.691" transform="translate(168.05 92.572)"/><rect class="e" width="76.767" height="1.691" transform="translate(168.05 96.968)"/><path class="f" d="M177.444,723.444l3.4.4a16.583,16.583,0,0,0,9.336,2.106,2.8,2.8,0,0,0,2.372-1.453h0a2.775,2.775,0,0,0-1.81-4.024l-2.585-.6-6.239-6.1-3.763-6.811-5.467.627-1.138,8.651h0A6.7,6.7,0,0,0,177.444,723.444Z" transform="translate(-171.527 -450.467)"/><path class="f" d="M292.993,714.192l3.335.785a16.583,16.583,0,0,0,9.035,3.156,2.8,2.8,0,0,0,2.522-1.174h0a2.774,2.774,0,0,0-1.34-4.2l-2.5-.893-5.5-6.772-2.963-7.2h-5.5l-2.116,8.466h0a6.7,6.7,0,0,0,5.033,7.832Z" transform="translate(-234.085 -445.591)"/><path class="f" d="M233.371,575.239l-6.223.957-9.813-49.542L200.343,497.7,179.761,581.94l-7.659,1.436c.859-47.442-3.333-107.168,6.223-114.4l41.644,4.787,18.189,48.823Z" transform="translate(-171.729 -322.458)"/><circle class="g" cx="14.36" cy="14.36" r="14.36" transform="translate(17.126 44.084)"/><path class="g" d="M24.63,155.177l17.232,2.872,4.308-15.317L33.725,138.9Z" transform="translate(-13.248 -74.715)"/><path class="b" d="M180.62,387.872l45.952,4.308c-3.684-12.81-7.059-25.574-4.308-38.293,3.494-11.355.122-18.107-9.095-23.454l-6.222-13.881-16.753-1.915h0a36.163,36.163,0,0,0-5.133,23.914C187.448,356.655,186.8,373.455,180.62,387.872Z" transform="translate(-176.418 -239.44)"/><path class="f" d="M210.337,242.863c4.9-.339,10.575-.432,11.285.859,5.078-.238,9.5,1.534,11.541,5.657a2.717,2.717,0,0,1-1.7,3.8c-2.576.743-6.5,1.662-9.368,1.368-5.95,7-3.447,19.755,2.329,27.21l-5.219,1.07-9.9-13.792,3.125,15.182-12.052,1.971-4.2-19.293a29.328,29.328,0,0,1,.645-13.781,11.079,11.079,0,0,1,.5-1.325,15.388,15.388,0,0,1,13.015-8.93Z" transform="translate(-184.498 -200.716)"/><path class="g" d="M229.8,431.762l-.317,11.113a6.059,6.059,0,0,0,5.454,6.2h0a6.059,6.059,0,0,0,6.452-7.61l-2.494-9.226-7.18-39.251.479-22.976-15.317-.479,2.872,25.848Z" transform="translate(-195.919 -268.969)"/><path class="b" d="M214.8,343.514a24.206,24.206,0,0,1,17.232,0l-.957-19.147a7.659,7.659,0,0,0-7.659-7.659h0a7.659,7.659,0,0,0-7.659,7.659Z" transform="translate(-194.805 -240.554)"/></g></svg>