<svg xmlns="http://www.w3.org/2000/svg" width="13" height="13" viewBox="0 0 13 13"><defs><style>.a{fill:rgba(60,60,67,0.6);}</style></defs><path class="a" d="M9.5,3A6.5,6.5,0,1,0,16,9.5,6.5,6.5,0,0,0,9.5,3ZM8.85,14.654A5.192,5.192,0,0,1,4.3,9.5a5.277,5.277,0,0,1,.137-1.163L7.55,11.45v.65a1.3,1.3,0,0,0,1.3,1.3ZM13.335,13a1.29,1.29,0,0,0-1.235-.9h-.65V10.15a.652.652,0,0,0-.65-.65H6.9V8.2H8.2a.652.652,0,0,0,.65-.65V6.25h1.3a1.3,1.3,0,0,0,1.3-1.3V4.683A5.188,5.188,0,0,1,13.335,13Z" transform="translate(-3 -3)"/></svg>